<svg width="55" height="14" viewBox="0 0 55 14" fill="none" xmlns="http://www.w3.org/2000/svg">
<path fill-rule="evenodd" clip-rule="evenodd" d="M2.37527 9.38456C2.27122 9.48048 2.18329 9.59254 2.11484 9.71641C2.00219 9.91056 1.93576 10.1281 1.92071 10.352C1.90565 10.576 1.94238 10.8004 2.02804 11.0079C2.1137 11.2154 2.246 11.4003 2.41467 11.5485C2.58334 11.6966 2.78386 11.8039 3.00067 11.862C3.21749 11.9201 3.44477 11.9275 3.66491 11.8837C3.88505 11.8398 4.09214 11.7458 4.2701 11.609C4.44807 11.4722 4.59214 11.2962 4.69115 11.0948C4.79016 10.8933 4.84144 10.6718 4.84102 10.4473C4.84102 9.708 3.82868 8.48563 2.82054 7.25906C1.64017 5.83086 0.459807 4.40266 0.459807 3.14669C0.451758 2.6914 0.549554 2.24047 0.745495 1.82943C0.941436 1.41839 1.23016 1.05848 1.58892 0.778054C1.94768 0.497627 2.36667 0.304353 2.81286 0.213465C3.25905 0.122577 3.72025 0.136558 4.16012 0.254307C4.59998 0.372055 5.00648 0.590354 5.34759 0.891997C5.68871 1.19364 5.95511 1.57038 6.1258 1.99254C6.29648 2.41469 6.36678 2.87072 6.33117 3.32467C6.29556 3.77863 6.155 4.21812 5.92057 4.60849C5.75458 4.89783 5.54001 5.15645 5.28628 5.373L4.41256 4.19683C4.51149 4.10467 4.5964 3.99853 4.6646 3.88179C4.79055 3.65873 4.85708 3.40705 4.85782 3.15088C4.86847 2.95261 4.8386 2.75424 4.77005 2.56789C4.7015 2.38153 4.5957 2.2111 4.45911 2.06698C4.32252 1.92286 4.158 1.80808 3.97558 1.72964C3.79317 1.6512 3.59668 1.61075 3.39812 1.61075C3.19955 1.61075 3.00308 1.6512 2.82066 1.72964C2.63825 1.80808 2.47373 1.92286 2.33714 2.06698C2.20055 2.2111 2.09475 2.38153 2.0262 2.56789C1.95764 2.75424 1.92777 2.95261 1.93841 3.15088C1.93841 3.89019 2.94655 5.11676 3.95889 6.33913C5.13926 7.76733 6.31543 9.19554 6.31543 10.4515C6.32348 10.9068 6.22568 11.3577 6.02974 11.7688C5.8338 12.1798 5.54506 12.5397 5.1863 12.8201C4.82755 13.1006 4.40857 13.2938 3.96238 13.3847C3.51619 13.4756 3.05499 13.4616 2.61512 13.3439C2.17526 13.2261 1.76875 13.0078 1.42764 12.7062C1.08652 12.4046 0.82013 12.0278 0.649447 11.6057C0.478765 11.1835 0.408453 10.7275 0.444065 10.2735C0.479677 9.81957 0.620239 9.38008 0.854663 8.9897C1.02421 8.69432 1.24462 8.43124 1.50575 8.2126L2.37527 9.38456Z" fill="#222222"/>
<path fill-rule="evenodd" clip-rule="evenodd" d="M12.5826 4.53716C12.7997 4.4622 12.9976 4.34029 13.1622 4.18011C13.3323 4.01015 13.4578 3.80086 13.5277 3.57078C13.5975 3.34071 13.6095 3.09697 13.5626 2.86114C13.5158 2.62531 13.4114 2.40469 13.2589 2.21883C13.1064 2.03296 12.9104 1.88759 12.6882 1.79559C12.4661 1.70359 12.2247 1.66781 11.9854 1.69141C11.7461 1.71501 11.5164 1.79727 11.3165 1.9309C11.1166 2.06453 10.9527 2.2454 10.8395 2.45749C10.7262 2.66958 10.667 2.90633 10.6671 3.14677V10.4474C10.6564 10.6457 10.6863 10.844 10.7549 11.0304C10.8234 11.2168 10.9292 11.3872 11.0658 11.5313C11.2024 11.6754 11.3669 11.7902 11.5493 11.8686C11.7318 11.9471 11.9282 11.9875 12.1268 11.9875C12.3254 11.9875 12.5218 11.9471 12.7043 11.8686C12.8867 11.7902 13.0512 11.6754 13.1878 11.5313C13.3244 11.3872 13.4302 11.2168 13.4987 11.0304C13.5673 10.844 13.5971 10.6457 13.5865 10.4474H15.0483C15.0979 10.8602 15.0594 11.2788 14.9354 11.6756C14.8113 12.0724 14.6045 12.4384 14.3286 12.7494C14.0527 13.0605 13.714 13.3094 13.3348 13.4799C12.9557 13.6505 12.5446 13.7386 12.1289 13.7386C11.7131 13.7386 11.3021 13.6505 10.9229 13.4799C10.5438 13.3094 10.2051 13.0605 9.92917 12.7494C9.65329 12.4384 9.44648 12.0724 9.32243 11.6756C9.19837 11.2788 9.15988 10.8602 9.20948 10.4474V3.14677C9.20133 2.65899 9.31468 2.17685 9.53929 1.74379C9.76391 1.31074 10.0927 0.940369 10.4962 0.666066C10.8996 0.391763 11.3649 0.222146 11.8502 0.172496C12.3355 0.122846 12.8256 0.194723 13.2762 0.381653C13.7268 0.568584 14.1238 0.864691 14.4315 1.24329C14.7391 1.6219 14.9477 2.0711 15.0385 2.55042C15.1293 3.02974 15.0994 3.52412 14.9515 3.98901C14.8037 4.4539 14.5424 4.87469 14.1914 5.21346C13.9807 5.42472 13.7383 5.60187 13.4731 5.73853L12.5826 4.53716Z" fill="#222222"/>
<path fill-rule="evenodd" clip-rule="evenodd" d="M19.4292 0.227539V6.79726C19.4267 7.18378 19.5778 7.55547 19.8493 7.8306C19.9844 7.96528 20.145 8.07177 20.3217 8.14388C20.4984 8.21599 20.6876 8.25228 20.8784 8.25066C21.2661 8.25066 21.6379 8.09665 21.9121 7.82251C22.1862 7.54837 22.3402 7.17655 22.3402 6.78886V0.227539H23.7978V6.79726C23.8474 7.21004 23.8089 7.62865 23.6849 8.02546C23.5608 8.42227 23.354 8.78827 23.0781 9.09929C22.8022 9.41032 22.4635 9.6593 22.0844 9.82981C21.7052 10.0003 21.2941 10.0885 20.8784 10.0885C20.4626 10.0885 20.0516 10.0003 19.6724 9.82981C19.2933 9.6593 18.9546 9.41032 18.6787 9.09929C18.4028 8.78827 18.196 8.42227 18.0719 8.02546C17.9479 7.62865 17.9094 7.21004 17.959 6.79726V0.227539H19.4292Z" fill="#222222"/>
<path fill-rule="evenodd" clip-rule="evenodd" d="M26.7388 13.3667V3.14667C26.7382 2.76333 26.8134 2.38365 26.96 2.02944C27.1065 1.67522 27.3216 1.35345 27.5929 1.08258C27.8641 0.811713 28.1862 0.597084 28.5406 0.451024C28.8951 0.304965 29.2748 0.230351 29.6582 0.231457C30.3334 0.231649 30.9878 0.465913 31.5097 0.894357C32.0316 1.3228 32.3889 1.91893 32.5206 2.58121C32.6524 3.24349 32.5505 3.93096 32.2323 4.52655C31.9141 5.12214 31.3993 5.58901 30.7755 5.84764L29.8472 4.58747C30.166 4.54429 30.4615 4.39655 30.6873 4.16741C30.8916 3.96297 31.0308 3.70256 31.0871 3.41908C31.1435 3.1356 31.1145 2.84177 31.0039 2.57474C30.8933 2.30771 30.7061 2.07945 30.4658 1.91881C30.2255 1.75818 29.943 1.67238 29.654 1.67226C29.462 1.67226 29.2719 1.71007 29.0946 1.78353C28.9172 1.857 28.7561 1.96467 28.6203 2.10041C28.4846 2.23615 28.3769 2.3973 28.3034 2.57466C28.23 2.75201 28.1922 2.9421 28.1922 3.13407V13.3541L26.7388 13.3667Z" fill="#222222"/>
<path d="M30.3802 8.25439H25.999V9.7162H30.3802V8.25439Z" fill="#222222"/>
<path d="M21.6181 8.83447H20.1562V13.3669H21.6181V8.83447Z" fill="#222222"/>
<path d="M36.9501 3.87744H35.4883V13.3666H36.9501V3.87744Z" fill="#222222"/>
<path fill-rule="evenodd" clip-rule="evenodd" d="M44.2507 10.4472V3.14654C44.2507 2.75885 44.0967 2.38703 43.8226 2.11289C43.5484 1.83875 43.1766 1.68473 42.7889 1.68473C42.5971 1.68473 42.4072 1.72257 42.2301 1.79609C42.053 1.8696 41.8921 1.97735 41.7567 2.11314C41.6213 2.24894 41.514 2.41012 41.441 2.58745C41.368 2.76478 41.3307 2.95477 41.3313 3.14654V10.4472C41.3206 10.6454 41.3505 10.8438 41.4191 11.0302C41.4876 11.2165 41.5934 11.387 41.73 11.5311C41.8666 11.6752 42.0311 11.79 42.2135 11.8684C42.396 11.9469 42.5924 11.9873 42.791 11.9873C42.9896 11.9873 43.186 11.9469 43.3685 11.8684C43.5509 11.79 43.7154 11.6752 43.852 11.5311C43.9886 11.387 44.0944 11.2165 44.1629 11.0302C44.2315 10.8438 44.2613 10.6454 44.2507 10.4472ZM45.7083 3.14654V10.4472C45.7232 10.8396 45.6588 11.231 45.5189 11.5979C45.379 11.9649 45.1665 12.2998 44.8941 12.5827C44.6217 12.8656 44.2951 13.0906 43.9337 13.2444C43.5724 13.3981 43.1837 13.4773 42.791 13.4773C42.3983 13.4773 42.0096 13.3981 41.6483 13.2444C41.2869 13.0906 40.9602 12.8656 40.6879 12.5827C40.4155 12.2998 40.203 11.9649 40.0631 11.5979C39.9232 11.231 39.8588 10.8396 39.8737 10.4472V3.14654C39.8709 2.7614 39.9444 2.3795 40.0899 2.02288C40.2353 1.66625 40.4499 1.34194 40.7213 1.06862C40.9927 0.795297 41.3154 0.57837 41.671 0.430344C42.0266 0.282318 42.4079 0.20612 42.7931 0.20613C43.1779 0.203362 43.5594 0.276692 43.9158 0.421903C44.2721 0.567114 44.5963 0.781337 44.8695 1.05226C45.1428 1.32318 45.3598 1.64546 45.5081 2.00055C45.6564 2.35564 45.733 2.73654 45.7335 3.12134" fill="#222222"/>
<path d="M50.0897 0.227539H48.6279V13.367H50.0897V0.227539Z" fill="#222222"/>
<path d="M54.4711 0.227539H53.0093V13.367H54.4711V0.227539Z" fill="#222222"/>
<path fill-rule="evenodd" clip-rule="evenodd" d="M35.4883 0.227539C35.4878 0.323576 35.5066 0.418732 35.5434 0.507446C35.5801 0.59616 35.6342 0.676649 35.7025 0.74421C35.804 0.850807 35.9353 0.924282 36.0792 0.955028C36.2231 0.985773 36.373 0.972356 36.5092 0.916525C36.6453 0.860694 36.7615 0.76505 36.8424 0.642118C36.9233 0.519185 36.9652 0.374692 36.9627 0.227539H38.4203C38.3956 0.791929 38.154 1.325 37.7458 1.71563C37.3377 2.10626 36.7946 2.3243 36.2297 2.3243C35.6647 2.3243 35.1216 2.10626 34.7135 1.71563C34.3054 1.325 34.0638 0.791929 34.0391 0.227539H35.4883Z" fill="#222222"/>
<path fill-rule="evenodd" clip-rule="evenodd" d="M50.0897 4.21777C50.0897 5.1461 50.9971 5.65437 51.9044 6.16264C53.1646 6.87674 54.471 7.59505 54.471 9.3761H53.0092C53.0092 8.44777 52.1018 7.93949 51.1945 7.43122C49.9091 6.71712 48.6279 5.99882 48.6279 4.21777H50.0897Z" fill="#222222"/>
<path fill-rule="evenodd" clip-rule="evenodd" d="M35.4883 0.227539C35.4878 0.323576 35.5066 0.418732 35.5434 0.507446C35.5801 0.59616 35.6342 0.676649 35.7025 0.74421C35.804 0.850807 35.9353 0.924282 36.0792 0.955028C36.2231 0.985773 36.373 0.972356 36.5092 0.916525C36.6453 0.860694 36.7615 0.76505 36.8424 0.642118C36.9233 0.519185 36.9652 0.374692 36.9627 0.227539H38.4203C38.3956 0.791929 38.154 1.325 37.7458 1.71563C37.3377 2.10626 36.7946 2.3243 36.2297 2.3243C35.6647 2.3243 35.1216 2.10626 34.7135 1.71563C34.3054 1.325 34.0638 0.791929 34.0391 0.227539H35.4883Z" fill="#222222"/>
</svg>
