<svg width="200" height="23" viewBox="0 0 200 23" fill="none" xmlns="http://www.w3.org/2000/svg">
<g style="mix-blend-mode:multiply">
<path d="M171.393 0.0234641C172.31 0.0139862 173.223 0.155773 174.094 0.443386C174.856 0.692894 175.556 1.09976 176.151 1.63675C176.714 2.15643 177.159 2.79065 177.454 3.4971C177.774 4.27202 177.932 5.10433 177.92 5.94241C177.92 7.29484 177.613 8.21435 177.004 8.70999C176.707 8.95165 176.354 9.11459 175.978 9.18362C175.601 9.25262 175.213 9.22612 174.85 9.1055C174.563 9.02401 174.302 8.86833 174.094 8.6553C173.849 8.41791 173.671 8.11916 173.581 7.79007C173.484 7.42538 173.484 7.04146 173.581 6.67678C173.71 6.22746 173.96 5.82181 174.304 5.50491C174.791 5.05529 175.133 4.47042 175.286 3.82522C175.406 3.27675 175.332 2.70288 175.076 2.20315C174.776 1.66705 174.314 1.2397 173.757 0.981472C173.024 0.634042 172.219 0.467942 171.409 0.498074C170.926 0.477551 170.444 0.568509 170.001 0.763699C169.558 0.958873 169.166 1.25337 168.855 1.62405C168.181 2.453 167.681 3.41062 167.389 4.4385C167.036 5.62575 166.815 6.84835 166.729 8.08401C166.631 9.39454 166.584 10.6061 166.587 11.7178C166.587 13.0494 166.633 14.3226 166.729 15.5449C166.803 16.6478 167.024 17.7359 167.389 18.7793C167.682 19.6353 168.187 20.4035 168.855 21.0137C169.573 21.601 170.483 21.9003 171.409 21.8535C172.4 21.8879 173.379 21.6296 174.224 21.1104C174.939 20.6608 175.557 20.0709 176.038 19.376C176.468 18.7582 176.794 18.0736 177.004 17.3506C177.167 16.8401 177.265 16.3106 177.294 15.7754C177.291 15.6563 177.325 15.539 177.391 15.4395C177.417 15.3949 177.454 15.3578 177.499 15.3321C177.544 15.3064 177.595 15.2932 177.646 15.293C177.721 15.2987 177.791 15.3334 177.84 15.3897C177.918 15.5023 177.952 15.6393 177.937 15.7754C177.918 16.4982 177.788 17.2146 177.551 17.8975C177.287 18.7072 176.89 19.4676 176.378 20.1485C175.827 20.877 175.138 21.4893 174.35 21.9502C173.456 22.4609 172.438 22.7166 171.409 22.6895C170.195 22.7076 168.996 22.4189 167.923 21.8496C166.903 21.3021 166.021 20.5278 165.348 19.586C164.613 18.539 164.074 17.3676 163.756 16.1289C163.38 14.685 163.197 13.1971 163.21 11.7051C163.197 10.1841 163.338 8.66561 163.63 7.17288C163.878 5.86185 164.356 4.60499 165.041 3.45999C165.666 2.42202 166.539 1.55556 167.582 0.93948C168.746 0.29672 170.063 -0.019948 171.393 0.0234641ZM97.3867 0.313503C97.4547 0.311123 97.5225 0.322215 97.5859 0.346706C97.6494 0.371214 97.7071 0.408645 97.7559 0.456081C97.8003 0.497539 97.8358 0.547949 97.8604 0.603542C97.8848 0.659027 97.8987 0.718682 97.8994 0.779324C97.8987 0.897589 97.8536 1.01173 97.7734 1.09866C97.7234 1.14954 97.6624 1.1895 97.5957 1.21487C97.5291 1.24016 97.4578 1.25084 97.3867 1.24612C97.2948 1.24939 97.2056 1.27934 97.1309 1.33303C97.0563 1.38676 96.9991 1.46181 96.9668 1.54788C96.862 1.78782 96.7966 2.0439 96.7734 2.30471C96.7424 2.61444 96.7327 2.92627 96.7441 3.23733V16.0362C96.7441 18.114 97.0756 19.6418 97.7393 20.6192C98.0736 21.1026 98.5276 21.4909 99.0566 21.7471C99.5859 22.0033 100.173 22.1188 100.76 22.0811C101.628 22.1096 102.488 21.9093 103.255 21.501C103.896 21.1445 104.445 20.6439 104.859 20.0391C105.253 19.4461 105.537 18.7877 105.699 18.0948C105.868 17.4215 105.955 16.7302 105.96 16.0362V3.35061C105.966 3.00065 105.91 2.65222 105.796 2.32132C105.679 2.05067 105.511 1.80503 105.301 1.59866C105.162 1.47745 105.001 1.3849 104.826 1.32718C104.652 1.26953 104.467 1.24787 104.284 1.26272C104.224 1.26273 104.163 1.24991 104.108 1.22464C104.053 1.19926 104.004 1.16137 103.965 1.11526C103.882 1.02314 103.835 0.903491 103.835 0.779324C103.826 0.718397 103.83 0.656236 103.85 0.597683C103.869 0.539029 103.902 0.485124 103.945 0.441433C103.989 0.397721 104.043 0.36505 104.102 0.34573C104.16 0.326413 104.223 0.320856 104.284 0.330105H108.435C108.558 0.328359 108.678 0.373313 108.771 0.456081C108.817 0.495956 108.855 0.545767 108.88 0.601589C108.905 0.657348 108.918 0.718088 108.917 0.779324C108.916 0.842367 108.903 0.905157 108.878 0.962917C108.853 1.02042 108.816 1.07223 108.771 1.11526C108.726 1.1632 108.671 1.20123 108.611 1.22659C108.551 1.25183 108.487 1.26442 108.422 1.26272C108.229 1.24483 108.035 1.26565 107.851 1.32327C107.666 1.38095 107.494 1.4743 107.346 1.59866C107.133 1.80369 106.963 2.04967 106.847 2.32132C106.734 2.65247 106.679 3.00089 106.687 3.35061L106.75 16.0528C106.768 16.9856 106.626 17.915 106.33 18.7998C106.064 19.5642 105.642 20.2655 105.091 20.8584C104.56 21.4215 103.911 21.8602 103.191 22.1436C102.411 22.438 101.581 22.5805 100.747 22.5635C99.9908 22.5581 99.2353 22.5149 98.4834 22.4336C97.6662 22.3525 96.8755 22.0948 96.168 21.6778C95.3984 21.2042 94.7706 20.532 94.3496 19.7324C93.8582 18.8545 93.6104 17.6323 93.6104 16.0362V3.23733C93.6273 2.92681 93.6273 2.61523 93.6104 2.30471C93.5984 2.044 93.5382 1.78697 93.4336 1.54788C93.4018 1.46164 93.3451 1.38682 93.2705 1.33303C93.1957 1.27913 93.1059 1.24884 93.0137 1.24612C92.9425 1.25143 92.8705 1.24124 92.8037 1.21585C92.737 1.19044 92.6766 1.14994 92.627 1.09866C92.5438 1.01331 92.4972 0.898511 92.4971 0.779324C92.4975 0.658974 92.5439 0.543153 92.627 0.456081C92.677 0.405494 92.7379 0.366498 92.8047 0.341824C92.8714 0.317163 92.9428 0.307651 93.0137 0.313503H97.3867ZM70.2461 0.271511C70.4654 0.262834 70.6831 0.313212 70.876 0.417995C71.0289 0.500943 71.1703 0.604315 71.2959 0.724636C71.4079 0.85841 71.4963 1.01118 71.5566 1.17483L76.2822 16.6407L81.042 1.33401C81.0804 1.14986 81.1563 0.975074 81.2647 0.821316C81.363 0.681265 81.4818 0.556856 81.6172 0.452175C81.7833 0.326339 81.9881 0.262424 82.1963 0.271511H84.8516C85.1539 0.271526 85.3007 0.42674 85.3008 0.737331C85.3008 1.04816 85.154 1.20411 84.8516 1.20413C84.7785 1.20136 84.7055 1.21711 84.6406 1.251C84.5759 1.28489 84.5209 1.33592 84.4815 1.39749C84.3986 1.55297 84.3448 1.72273 84.3223 1.89749C84.2872 2.1142 84.2657 2.33334 84.2588 2.55276V19.4385C84.2577 19.7449 84.2792 20.0512 84.3223 20.3545C84.3537 20.6012 84.4132 20.8438 84.499 21.0772C84.521 21.155 84.5667 21.224 84.6299 21.2744C84.6932 21.3249 84.7707 21.3544 84.8516 21.3584C84.9281 21.3478 85.0061 21.3554 85.0791 21.3809C85.1522 21.4065 85.2182 21.4498 85.2715 21.5059C85.3452 21.6023 85.3851 21.7205 85.3848 21.8418C85.3834 21.904 85.3699 21.9656 85.3447 22.0225C85.3196 22.0792 85.2833 22.1302 85.2383 22.1729C85.1908 22.2221 85.1329 22.2608 85.0693 22.2862C85.0056 22.3115 84.9367 22.3235 84.8682 22.3203H80.5127C80.4414 22.3266 80.3687 22.3165 80.3018 22.291C80.235 22.2656 80.175 22.2248 80.126 22.1729C80.0441 22.0817 79.9981 21.9643 79.9961 21.8418C79.9958 21.7204 80.0356 21.6023 80.1094 21.5059C80.1627 21.4498 80.2287 21.4065 80.3018 21.3809C80.3747 21.3554 80.4528 21.3478 80.5293 21.3584C80.6157 21.3557 80.6994 21.3263 80.7686 21.2744C80.8376 21.2226 80.8893 21.1505 80.916 21.0684C81.0012 20.8404 81.0535 20.6011 81.0713 20.3584C81.1021 20.0544 81.1172 19.749 81.1172 19.4434V4.12307L75.4258 21.9502C75.4066 22.0578 75.3635 22.1603 75.2998 22.2491C75.2651 22.3333 75.2071 22.4062 75.1328 22.459C75.0585 22.5118 74.9699 22.5419 74.8789 22.5469C74.7741 22.5523 74.6699 22.5274 74.5791 22.4746C74.4882 22.4217 74.4144 22.3431 74.3672 22.2491C74.2982 22.1502 74.253 22.0364 74.2363 21.917C74.1733 21.7196 74.0478 21.3205 73.8672 20.7158C73.6866 20.111 73.4465 19.3802 73.1777 18.5108C72.9089 17.6412 72.5939 16.6912 72.2578 15.6494C71.9218 14.6078 71.5905 13.5491 71.2461 12.4991C70.9017 11.4491 70.5774 10.3993 70.2666 9.39553C69.9558 8.39159 69.6704 7.50047 69.4268 6.72757C69.1832 5.95475 68.9644 5.33276 68.8174 4.86233C68.6705 4.39216 68.5908 4.14407 68.5908 4.12307V19.9092C68.5918 20.0888 68.6134 20.2676 68.6543 20.4424C68.6958 20.6193 68.7789 20.7842 68.8975 20.9219C69.0329 21.0776 69.203 21.1992 69.3936 21.2783C69.6606 21.3839 69.9465 21.4323 70.2334 21.4209C70.3491 21.4246 70.459 21.4731 70.54 21.5557C70.5878 21.5965 70.6259 21.6477 70.6514 21.7051C70.6768 21.7625 70.6894 21.825 70.6875 21.8877C70.6893 21.9486 70.6768 22.0092 70.6514 22.0645C70.6259 22.1199 70.5875 22.1688 70.54 22.2071C70.454 22.279 70.3456 22.319 70.2334 22.3203H66.3438C66.2821 22.3251 66.2199 22.316 66.1621 22.294C66.1043 22.272 66.0517 22.2379 66.0088 22.1934C65.9659 22.1488 65.9339 22.0947 65.9141 22.0362C65.8943 21.9777 65.8876 21.9158 65.8945 21.8545C65.897 21.737 65.9432 21.6241 66.0244 21.5391C66.0634 21.4923 66.1119 21.4539 66.167 21.4278C66.2221 21.4016 66.2828 21.3882 66.3438 21.3877C67.0074 21.3877 67.4439 21.2235 67.6455 20.8916C67.8417 20.5902 67.9481 20.2395 67.9522 19.8799V2.29593C67.9062 2.09796 67.8192 1.91186 67.6963 1.75003C67.5619 1.60242 67.4048 1.47706 67.2305 1.37991C66.9699 1.25096 66.6801 1.1909 66.3897 1.20413C66.0874 1.20403 65.9404 1.04808 65.9404 0.737331C65.9406 0.426821 66.0875 0.271607 66.3897 0.271511H70.2461ZM148.684 0.229519C148.763 0.217909 148.845 0.227726 148.919 0.258816C148.993 0.289893 149.057 0.340546 149.104 0.4053C149.167 0.522742 149.222 0.623822 149.264 0.711941C149.39 1.13194 149.57 1.70775 149.793 2.4805C150.016 3.2534 150.277 4.13632 150.566 5.13186C150.856 6.12711 151.166 7.20229 151.498 8.34866C151.83 9.49534 152.166 10.6424 152.511 11.7891C152.855 12.9359 153.188 14.0451 153.507 15.1162L154.376 17.9932C154.634 18.8332 154.853 19.5337 155.035 20.0938C155.126 20.4217 155.251 20.7397 155.405 21.043C155.599 21.2992 155.779 21.4297 155.951 21.4297L156.073 21.4209C156.134 21.421 156.194 21.4347 156.249 21.46C156.304 21.4854 156.353 21.5224 156.393 21.5684C156.433 21.6074 156.466 21.6542 156.488 21.7061C156.511 21.7581 156.522 21.8145 156.522 21.8711C156.532 21.9321 156.526 21.9942 156.507 22.0528C156.488 22.1115 156.455 22.1653 156.411 22.209C156.367 22.2527 156.314 22.2854 156.255 22.3047C156.196 22.3239 156.134 22.3295 156.073 22.3203H151.83C151.549 22.3203 151.41 22.1732 151.41 21.8711C151.41 21.8145 151.422 21.7581 151.444 21.7061C151.467 21.6543 151.499 21.6074 151.54 21.5684C151.574 21.5239 151.619 21.4874 151.669 21.4619C151.719 21.4366 151.774 21.4224 151.83 21.4209C152.086 21.4209 152.213 21.2492 152.213 20.9092C152.21 20.5801 152.159 20.2528 152.062 19.9385C151.944 19.4555 151.776 18.8632 151.562 18.1533C151.282 17.6409 150.938 17.0738 150.532 16.4522C150.119 15.8235 149.646 15.2354 149.121 14.6963C148.582 14.1486 147.969 13.6773 147.302 13.2969C146.628 12.915 145.874 12.6949 145.101 12.6543L142.786 19.9219C142.661 20.1719 142.637 20.4612 142.72 20.7285C142.787 20.9521 142.937 21.1418 143.14 21.2578C143.512 21.4459 143.929 21.5286 144.345 21.4971V21.5303C144.622 21.5303 144.765 21.6608 144.765 21.917C144.773 21.9741 144.768 22.0322 144.75 22.0869C144.732 22.1416 144.702 22.1917 144.661 22.2324C144.62 22.2732 144.57 22.3042 144.516 22.3223C144.461 22.3404 144.402 22.3454 144.345 22.3369H140.388C140.331 22.3454 140.273 22.3403 140.218 22.3223C140.163 22.3042 140.113 22.2733 140.072 22.2324C140.031 22.1916 140.001 22.1417 139.982 22.0869C139.964 22.0322 139.959 21.974 139.968 21.917C139.968 21.6608 140.106 21.5304 140.388 21.5303V21.4971C140.632 21.5054 140.875 21.4567 141.098 21.3545C141.284 21.2628 141.448 21.1306 141.577 20.9678C141.703 20.8154 141.801 20.6416 141.866 20.4551L142.06 19.9219L147.075 4.10257C147.495 2.54032 147.827 1.42276 148.041 0.742214C148.089 0.624879 148.148 0.511494 148.218 0.4053C148.274 0.339064 148.347 0.28865 148.429 0.257839C148.51 0.227138 148.598 0.21732 148.684 0.229519ZM195.113 0.296902H199.486C199.555 0.29433 199.623 0.305795 199.687 0.331081C199.75 0.356366 199.808 0.394599 199.855 0.443386C199.899 0.484351 199.934 0.534068 199.959 0.588894C199.984 0.643702 199.997 0.702694 199.998 0.762722C199.998 0.883204 199.951 0.998815 199.868 1.08596C199.818 1.13554 199.758 1.17462 199.692 1.19925C199.627 1.22376 199.556 1.23415 199.486 1.22952C199.142 1.22952 198.923 1.43934 198.826 1.8594C198.726 2.29748 198.678 2.74603 198.68 3.19534V19.4258C198.677 19.8743 198.72 20.3222 198.81 20.7617C198.889 21.1984 199.108 21.3876 199.481 21.3877C199.552 21.383 199.623 21.3934 199.688 21.418C199.754 21.4426 199.814 21.4808 199.864 21.5303C199.907 21.5729 199.942 21.6238 199.965 21.6797C199.988 21.7356 200 21.796 200 21.8565C200 21.9168 199.988 21.9766 199.965 22.0323C199.942 22.0881 199.907 22.1391 199.864 22.1817C199.764 22.275 199.631 22.3249 199.494 22.3203H195.109C195.047 22.3245 194.983 22.3156 194.924 22.294C194.865 22.2723 194.81 22.2381 194.765 22.1944C194.719 22.1505 194.683 22.0967 194.659 22.0381C194.635 21.9797 194.624 21.9166 194.626 21.8535C194.625 21.7366 194.663 21.6225 194.735 21.5303C194.783 21.4801 194.842 21.4407 194.906 21.416C194.971 21.3915 195.041 21.382 195.109 21.3877C195.197 21.3908 195.284 21.3735 195.364 21.3379C195.444 21.3022 195.515 21.2488 195.571 21.1817C195.699 21.0222 195.789 20.8354 195.832 20.6358C195.885 20.3907 195.923 20.1424 195.945 19.8926C195.945 19.628 195.975 19.3627 195.975 19.1065C195.975 18.1209 195.921 17.0919 195.814 16.0196C195.71 14.9612 195.41 13.9311 194.929 12.9824C194.403 11.9709 193.635 11.1049 192.693 10.4619C191.427 9.64784 189.989 9.13635 188.493 8.96682V19.4678C188.512 19.9164 188.565 20.3632 188.652 20.8037C188.736 21.2238 188.964 21.4297 189.329 21.4297C189.4 21.4249 189.471 21.4352 189.537 21.459C189.603 21.4829 189.665 21.52 189.716 21.5684C189.795 21.6525 189.84 21.7634 189.842 21.8789C189.841 21.9379 189.827 21.9963 189.803 22.0498C189.778 22.1033 189.742 22.1516 189.698 22.1905C189.598 22.2835 189.466 22.3327 189.329 22.3282H184.948C184.882 22.3316 184.816 22.3216 184.755 22.2979C184.693 22.274 184.637 22.2374 184.591 22.1905C184.511 22.1067 184.466 21.9948 184.465 21.8789C184.466 21.7654 184.506 21.6557 184.578 21.5684C184.625 21.5184 184.683 21.4801 184.747 21.4561C184.811 21.4321 184.88 21.4228 184.948 21.4297C185.034 21.434 185.12 21.4173 185.198 21.3809C185.277 21.3443 185.345 21.2888 185.397 21.2198C185.514 21.0562 185.595 20.8703 185.637 20.6739C185.694 20.4309 185.732 20.1835 185.75 19.9346C185.771 19.6658 185.784 19.4008 185.784 19.1446V3.55667C185.784 3.30048 185.784 3.03542 185.75 2.76663C185.732 2.51764 185.694 2.27035 185.637 2.02737C185.594 1.82619 185.512 1.63453 185.397 1.46389C185.348 1.39136 185.281 1.33263 185.202 1.293C185.124 1.25339 185.036 1.23415 184.948 1.23733C184.88 1.24368 184.81 1.23379 184.746 1.20901C184.682 1.18423 184.624 1.14539 184.578 1.09475C184.505 1.00307 184.465 0.888977 184.465 0.771511C184.465 0.652987 184.51 0.538686 184.591 0.452175C184.635 0.40244 184.691 0.363369 184.753 0.337917C184.815 0.312549 184.882 0.300853 184.948 0.304714H189.32C189.389 0.302103 189.458 0.313575 189.521 0.338894C189.585 0.364214 189.643 0.403325 189.69 0.452175C189.736 0.491954 189.772 0.540754 189.797 0.59573C189.822 0.65082 189.834 0.711162 189.833 0.771511C189.832 0.891101 189.788 1.00635 189.707 1.09475C189.656 1.1439 189.596 1.18248 189.529 1.20706C189.463 1.23164 189.391 1.24156 189.32 1.23733C189.242 1.23482 189.164 1.24908 189.092 1.27932C189.019 1.30977 188.954 1.35617 188.9 1.41409C188.784 1.55003 188.697 1.70866 188.645 1.87991C188.577 2.08843 188.533 2.30413 188.514 2.52249C188.514 2.75772 188.484 2.98502 188.484 3.19925V8.56741C189.573 8.59875 190.658 8.70667 191.731 8.89065C192.52 9.02788 193.3 9.21004 194.067 9.43655C194.715 9.64071 195.348 9.88862 195.962 10.1768V3.50979C195.962 3.25368 195.962 2.99334 195.933 2.72464C195.91 2.47617 195.873 2.2291 195.819 1.98538C195.777 1.7855 195.687 1.59839 195.559 1.43948C195.503 1.37174 195.432 1.31766 195.352 1.28128C195.272 1.24492 195.185 1.22722 195.097 1.22952C195.026 1.23454 194.954 1.22387 194.888 1.19925C194.821 1.17462 194.76 1.13583 194.71 1.08596C194.627 0.998824 194.58 0.883165 194.58 0.762722C194.579 0.646314 194.619 0.533159 194.693 0.443386C194.746 0.38651 194.812 0.343015 194.885 0.317409C194.958 0.291779 195.037 0.285211 195.113 0.296902ZM29.7109 0.216824C29.9236 0.216882 30.0637 0.276024 30.1309 0.393581C30.198 0.511041 30.2488 0.612101 30.2949 0.700222C30.4209 1.12024 30.5975 1.69615 30.8242 2.46878C31.051 3.24155 31.3069 4.12387 31.5967 5.11917C31.8865 6.11463 32.1933 7.19029 32.5293 8.33694C32.8653 9.48348 33.1976 10.6299 33.542 11.7764C33.8864 12.9231 34.2137 14.0324 34.5371 15.1035C34.8606 16.1747 35.1458 17.133 35.4063 17.9815C35.6666 18.8298 35.8816 19.5225 36.0664 20.0811C36.1555 20.4096 36.2791 20.728 36.4356 21.0303C36.6244 21.2863 36.8093 21.4168 36.9815 21.417L37.0742 21.4209C37.1349 21.4209 37.1949 21.4346 37.25 21.46C37.3051 21.4854 37.3541 21.5223 37.3936 21.5684C37.4344 21.6074 37.4669 21.6542 37.4893 21.7061C37.5116 21.7581 37.5232 21.8145 37.5234 21.8711C37.5326 21.932 37.528 21.9942 37.5088 22.0528C37.4895 22.1115 37.4558 22.1653 37.4121 22.209C37.3685 22.2526 37.3154 22.2854 37.2568 22.3047C37.1981 22.324 37.1354 22.3296 37.0742 22.3203H32.8272C32.5502 22.3202 32.4073 22.1732 32.4072 21.8711C32.4097 21.7581 32.4547 21.6497 32.5332 21.5684C32.5681 21.5245 32.6121 21.4883 32.6621 21.4629C32.7121 21.4375 32.7672 21.4232 32.8232 21.4209C33.0794 21.4209 33.2099 21.2492 33.21 20.9092C33.2113 20.5763 33.1624 20.2446 33.0664 19.9258C32.9488 19.4428 32.7816 18.8504 32.5674 18.1407C32.2874 17.6282 31.9441 17.0611 31.5381 16.4395C31.1243 15.8097 30.6497 15.2216 30.1221 14.6836C29.5854 14.1351 28.9746 13.6646 28.3076 13.2852C27.6322 12.9033 26.8774 12.6834 26.1025 12.6426L23.7881 19.9092C23.6655 20.1603 23.6425 20.4488 23.7246 20.7158C23.7909 20.9399 23.9414 21.1297 24.1445 21.2451C24.5173 21.4325 24.9345 21.5151 25.3506 21.4844V21.5176C25.6319 21.5177 25.7705 21.6482 25.7705 21.9043C25.779 21.9613 25.7739 22.0195 25.7559 22.0742C25.7378 22.1291 25.7069 22.1799 25.666 22.2207C25.6252 22.2614 25.5752 22.2915 25.5205 22.3096C25.4657 22.3277 25.4076 22.3327 25.3506 22.3242H21.4229C21.3658 22.3327 21.3077 22.3276 21.2529 22.3096C21.1983 22.2916 21.1482 22.2614 21.1074 22.2207C21.0666 22.1799 21.0357 22.1291 21.0176 22.0742C20.9996 22.0195 20.9945 21.9613 21.0029 21.9043C21.003 21.6482 21.1415 21.5176 21.4229 21.5176V21.4844C21.666 21.4922 21.908 21.4436 22.1289 21.3418C22.3156 21.2491 22.4799 21.1169 22.6113 20.9551C22.7374 20.8027 22.8357 20.629 22.9014 20.4424C22.9644 20.2577 23.0317 20.0814 23.0947 19.9092L28.1016 4.08987C28.5216 2.52734 28.8541 1.41003 29.0684 0.729519C29.1164 0.612318 29.175 0.499668 29.2441 0.393581C29.3007 0.327231 29.3736 0.275991 29.4551 0.245144C29.5366 0.214359 29.6247 0.204523 29.7109 0.216824ZM45.0264 0.309597H49.3984C49.467 0.306454 49.5359 0.31745 49.5996 0.3428C49.6633 0.368151 49.721 0.406777 49.7686 0.456081C49.8139 0.495906 49.8504 0.545536 49.875 0.600613C49.8995 0.655569 49.9117 0.715242 49.9111 0.775417C49.9107 0.895071 49.8657 1.0102 49.7852 1.09866C49.7344 1.14803 49.6738 1.18636 49.6074 1.21096C49.5409 1.23556 49.4693 1.24573 49.3984 1.24124C49.3196 1.23427 49.24 1.24676 49.167 1.27737C49.0938 1.30812 49.0289 1.35659 48.9785 1.418C48.8857 1.55834 48.8261 1.71817 48.8027 1.88479C48.7712 2.09746 48.7551 2.31239 48.7559 2.52737V21.8203H50.7803C51.544 21.8161 52.3074 21.7675 53.0654 21.6739C53.8456 21.5879 54.6122 21.4036 55.3467 21.127C56.0146 20.8863 56.6195 20.4976 57.1152 19.9893C57.5973 19.4642 57.8515 18.7688 57.8213 18.0567C57.8139 17.992 57.8215 17.9265 57.8438 17.8653C57.866 17.8041 57.902 17.7489 57.9492 17.7041C57.9965 17.6593 58.0539 17.6264 58.1162 17.6074C58.1784 17.5885 58.2445 17.5839 58.3086 17.5948C58.4273 17.5967 58.5408 17.6431 58.627 17.7246C58.6731 17.7641 58.711 17.8131 58.7363 17.8682C58.7617 17.9233 58.7744 17.9833 58.7744 18.044V21.6778C58.7824 21.8424 58.7383 22.0053 58.6484 22.1436C58.5875 22.209 58.5117 22.2594 58.4277 22.2901C58.3439 22.3206 58.2537 22.3311 58.165 22.3203H45.0469C44.9817 22.3268 44.9157 22.3193 44.8535 22.2989C44.7914 22.2784 44.7341 22.2451 44.6856 22.2012C44.6369 22.1573 44.598 22.1038 44.5713 22.044C44.5446 21.9842 44.5305 21.919 44.5303 21.8535C44.5327 21.735 44.579 21.6216 44.6602 21.5352C44.7098 21.4839 44.7702 21.4434 44.8369 21.418C44.9037 21.3926 44.9756 21.3824 45.0469 21.3877C45.3031 21.3877 45.4671 21.1736 45.5469 20.7451C45.6213 20.2884 45.658 19.8261 45.6563 19.3633V2.77053C45.6684 2.52379 45.6587 2.27628 45.627 2.03128C45.6039 1.83384 45.5424 1.64275 45.4463 1.46878C45.4076 1.3929 45.3464 1.33059 45.2715 1.29007C45.1966 1.24963 45.111 1.23206 45.0264 1.24124C44.9555 1.24626 44.884 1.23655 44.8174 1.21194C44.7508 1.18731 44.6902 1.14856 44.6397 1.09866C44.5606 1.01554 44.5137 0.906595 44.5088 0.792019C44.5114 0.677628 44.5449 0.565873 44.6055 0.468777C44.6563 0.409043 44.7217 0.362908 44.7949 0.334988C44.8684 0.307082 44.9486 0.298662 45.0264 0.309597ZM119.515 0.296902C119.779 0.290049 120.042 0.340857 120.284 0.447292C120.469 0.529983 120.643 0.636274 120.801 0.762722C120.951 0.898629 121.081 1.0563 121.187 1.22952L130.542 15.377V2.74124C130.538 2.38218 130.433 2.03115 130.239 1.72854C130.033 1.39693 129.601 1.2296 128.938 1.22952C128.876 1.22962 128.815 1.21553 128.759 1.18948C128.703 1.16335 128.653 1.12555 128.613 1.07815C128.533 0.992451 128.487 0.880072 128.483 0.762722C128.476 0.700881 128.483 0.638038 128.503 0.579128C128.523 0.52025 128.556 0.466496 128.6 0.421902C128.643 0.377376 128.696 0.343023 128.754 0.321316C128.812 0.299601 128.875 0.291517 128.938 0.296902H132.827C132.886 0.29925 132.943 0.313877 132.996 0.33987C133.049 0.365906 133.096 0.402054 133.134 0.447292C133.22 0.530349 133.27 0.643399 133.276 0.762722C133.279 0.82505 133.267 0.887051 133.242 0.944363C133.218 1.00171 133.181 1.05357 133.134 1.09475C133.052 1.17658 132.943 1.22494 132.827 1.22952C132.54 1.21775 132.253 1.26616 131.986 1.3721C131.796 1.45273 131.624 1.57416 131.486 1.72854C131.368 1.86751 131.286 2.03373 131.247 2.21194C131.203 2.38483 131.18 2.56271 131.18 2.74124V22.001C131.186 22.0443 131.183 22.0884 131.169 22.1299C131.155 22.1715 131.132 22.2093 131.101 22.2403C131.07 22.2712 131.032 22.2948 130.99 22.3086C130.949 22.3224 130.905 22.3266 130.861 22.3203C130.772 22.3072 130.69 22.2609 130.634 22.1905C130.59 22.1423 130.556 22.084 130.537 22.0215L118.738 4.25393V19.8799C118.739 20.0581 118.76 20.2359 118.801 20.4092C118.847 20.5908 118.93 20.7613 119.045 20.9092C119.178 21.0699 119.348 21.1965 119.54 21.2783C119.807 21.3839 120.094 21.4323 120.381 21.4209C120.496 21.4247 120.607 21.4732 120.688 21.5557C120.735 21.5965 120.772 21.6478 120.798 21.7051C120.823 21.7625 120.836 21.8249 120.834 21.8877C120.832 21.9454 120.817 22.0018 120.792 22.0537C120.767 22.1058 120.732 22.1529 120.688 22.1905C120.606 22.2718 120.496 22.3181 120.381 22.3203H116.49C116.367 22.3202 116.248 22.2709 116.161 22.1836C116.074 22.0962 116.024 21.9772 116.024 21.8535C116.025 21.73 116.074 21.6118 116.161 21.5244C116.248 21.4371 116.367 21.3878 116.49 21.3877C117.154 21.3877 117.591 21.2235 117.793 20.8916C117.989 20.5903 118.096 20.2394 118.1 19.8799V3.15725C118.095 2.9835 118.073 2.81053 118.036 2.64065C117.99 2.42078 117.919 2.20648 117.826 2.00198C117.735 1.79606 117.604 1.61028 117.44 1.45608C117.259 1.29724 117.021 1.21609 116.78 1.22952C116.665 1.22498 116.555 1.17661 116.474 1.09475C116.427 1.05356 116.39 1.00174 116.365 0.944363C116.341 0.887037 116.329 0.825067 116.331 0.762722C116.337 0.643402 116.388 0.530348 116.474 0.447292C116.511 0.402061 116.559 0.365895 116.611 0.33987C116.664 0.313865 116.722 0.299232 116.78 0.296902H119.515ZM6.10743 0.296902C7.49887 0.247954 8.8811 0.546432 10.1279 1.16604C11.1734 1.7201 12.0596 2.53285 12.7022 3.52639C13.3717 4.59255 13.8297 5.77823 14.0508 7.0176C14.3142 8.41617 14.4439 9.83665 14.4375 11.2598C14.4365 12.6152 14.2684 13.9659 13.9375 15.2803C13.6351 16.5409 13.1235 17.7421 12.4248 18.834C11.7637 19.8586 10.8796 20.7207 9.8379 21.3545C8.70891 22.0176 7.41628 22.3508 6.10743 22.3164H0.512703C0.442509 22.322 0.371639 22.3117 0.305671 22.2871C0.239636 22.2625 0.179326 22.2231 0.12989 22.1729C0.0468632 22.0858 0.000383975 21.97 7.39696e-06 21.8496C0.000212899 21.7304 0.0465941 21.6156 0.12989 21.5303C0.178853 21.4794 0.238796 21.4405 0.304695 21.4151C0.370749 21.3897 0.442108 21.3788 0.512703 21.3838C0.684685 21.3836 0.81046 21.2449 0.881843 20.9639C0.96417 20.6464 1.02456 20.3229 1.06251 19.9971C1.10735 19.5281 1.12887 19.0571 1.12598 18.586V3.25393C1.12772 2.79228 1.08991 2.33116 1.0127 1.876C0.937123 1.43512 0.772955 1.217 0.512703 1.21682C0.442501 1.22151 0.37158 1.21118 0.305671 1.18655C0.239803 1.16192 0.179794 1.12282 0.12989 1.07327C0.0468761 0.986153 0.000383944 0.870374 7.39696e-06 0.750027C-0.0003319 0.691095 0.0110053 0.63274 0.0332105 0.578152C0.0555565 0.523368 0.088241 0.472714 0.12989 0.430691C0.178393 0.378989 0.238529 0.338952 0.304695 0.313503C0.370798 0.288135 0.442141 0.278325 0.512703 0.284206L6.10743 0.296902ZM4.2422 21.8076H6.10743C6.95419 21.8171 7.77373 21.507 8.40137 20.9385C9.10093 20.2954 9.64895 19.5047 10.0059 18.6241C10.4572 17.5478 10.7707 16.4186 10.9385 15.2637C11.1475 13.9397 11.2501 12.6002 11.2451 11.2598C11.2507 9.89418 11.159 8.5295 10.9717 7.17678C10.8235 6.03981 10.5272 4.92712 10.0899 3.86721C9.7454 3.01072 9.19929 2.24985 8.49805 1.64944C7.82021 1.10364 6.96951 0.817533 6.09962 0.8428H4.2422V21.8076ZM145.235 12.2891C146.28 12.2961 147.316 12.4705 148.306 12.8057C148.957 13.0297 149.579 13.332 150.158 13.7051C149.898 12.9113 149.638 12.1128 149.369 11.3106C149.1 10.5083 148.844 9.73966 148.596 9.00882C148.348 8.27791 148.13 7.60511 147.937 6.98343C147.743 6.36189 147.583 5.8286 147.457 5.37503L145.235 12.2891ZM26.2363 12.2891C27.2805 12.2934 28.3178 12.4655 29.3076 12.7979C29.9575 13.0217 30.5779 13.3233 31.1553 13.6963C30.8991 12.9025 30.6347 12.104 30.3701 11.3018C30.1055 10.4996 29.8455 9.73083 29.5977 9.00003C29.3498 8.26914 29.1307 7.59729 28.9375 6.97561C28.7443 6.35393 28.5853 5.8199 28.4551 5.36624L26.2363 12.2891Z" fill="#222222"/>
</g>
</svg>
