<svg width="55" height="18" viewBox="0 0 55 18" fill="none" xmlns="http://www.w3.org/2000/svg">
<path d="M20.6736 1.29842C20.4934 1.06474 20.2711 0.866728 20.0183 0.714533C19.743 0.546702 19.4422 0.424697 19.1278 0.353282C18.7576 0.265914 18.3782 0.223606 17.9978 0.22727H14.7676V5.86866H18.002C18.3821 5.87151 18.7613 5.83064 19.132 5.74684C19.4464 5.67543 19.7472 5.55342 20.0225 5.38559C20.2734 5.23079 20.4952 5.03317 20.6778 4.80171C20.8623 4.56777 21.0045 4.30335 21.0979 4.0204C21.1898 3.70668 21.2351 3.38116 21.2323 3.05426C21.2252 2.72594 21.17 2.40044 21.0685 2.08813C20.9761 1.8022 20.8339 1.53484 20.6484 1.29842M19.9721 3.72636C19.9183 3.91823 19.8331 4.0999 19.7201 4.26403C19.6084 4.42171 19.4654 4.55469 19.3 4.65469C19.1244 4.76411 18.9332 4.84626 18.7329 4.89832C18.4938 4.95682 18.2482 4.98504 18.002 4.98233H15.8345V1.11359H18.002C18.248 1.10951 18.4936 1.13632 18.7329 1.1934C18.9347 1.24325 19.1264 1.32706 19.3 1.44124C19.4675 1.55075 19.6106 1.69378 19.7201 1.8613C19.8331 2.02543 19.9183 2.2071 19.9721 2.39897C20.0897 2.83932 20.0897 3.30282 19.9721 3.74316" fill="#222222"/>
<path d="M23.3117 3.79761H24.8491L26.773 5.8685H28.1508L26.1471 3.7178C26.4492 3.70519 26.7466 3.63831 27.025 3.52037C27.3117 3.39569 27.5555 3.18979 27.7265 2.92809C27.8963 2.64891 27.9809 2.3263 27.9701 1.99975C27.9754 1.7468 27.9297 1.49538 27.8357 1.26045C27.7483 1.04542 27.6133 0.852987 27.4409 0.697575C27.2536 0.537338 27.0346 0.41852 26.7982 0.348925C26.5152 0.262367 26.2203 0.221253 25.9245 0.227111H22.1943V5.8685H23.2991L23.3117 3.79761ZM23.3117 1.07983H25.7354C25.9039 1.07741 26.072 1.09718 26.2353 1.13864C26.3649 1.17098 26.4864 1.22959 26.5924 1.31086C26.6877 1.38801 26.7603 1.48965 26.8024 1.6049C26.8527 1.7391 26.877 1.88167 26.8738 2.02496C26.8786 2.16837 26.8543 2.31126 26.8024 2.44502C26.758 2.55781 26.6857 2.65751 26.5924 2.73486C26.4859 2.81963 26.3628 2.88116 26.2311 2.91549C26.0695 2.95848 25.9026 2.97828 25.7354 2.97429H23.3117V1.07983Z" fill="#222222"/>
<path d="M30.1629 0.227539H29.0581V5.86893H30.1629V0.227539Z" fill="#222222"/>
<path d="M32.5567 1.45411L36.6985 5.86893H36.7699H36.9421H37.7864V0.227539H36.7699V4.66336L32.6197 0.227539H32.5567H32.2878H31.5317V5.86893H32.5567V1.45411Z" fill="#222222"/>
<path d="M45.3688 5.86893L41.7436 2.8025L45.1377 0.227539H43.6507L40.1642 2.87391V0.227539H39.0679V5.86893H40.1642V4.00387L40.8825 3.45779L43.7767 5.86893H45.3688Z" fill="#222222"/>
<path d="M19.615 10.4597C19.2291 10.3225 18.8264 10.2377 18.4179 10.2077L16.9014 10.0943C16.6394 10.071 16.3796 10.0274 16.1243 9.96407C15.9576 9.92804 15.8029 9.84996 15.6749 9.73724C15.6254 9.68465 15.5872 9.62249 15.5626 9.55458C15.5381 9.48668 15.5277 9.41446 15.5321 9.34239C15.5314 9.23124 15.5684 9.12314 15.6371 9.03574C15.7197 8.92806 15.828 8.84284 15.9521 8.7879C16.131 8.70761 16.3206 8.65384 16.515 8.62829C16.7823 8.59233 17.0518 8.57548 17.3215 8.57788C17.797 8.55143 18.272 8.63779 18.7077 8.82991C18.8551 8.90311 18.9843 9.00818 19.086 9.1375C19.1877 9.26683 19.2594 9.41717 19.2958 9.57762L20.4131 9.4264C20.3489 9.07216 20.179 8.74564 19.9259 8.48967C19.641 8.21698 19.291 8.02175 18.9093 7.92258C18.3985 7.78658 17.8711 7.72295 17.3425 7.73356C16.9197 7.72913 16.4975 7.76713 16.0823 7.84698C15.7572 7.90948 15.4449 8.0259 15.1582 8.19142C14.9316 8.32336 14.74 8.50775 14.5995 8.7291C14.4838 8.93122 14.4191 9.15851 14.4111 9.39127C14.403 9.62404 14.4518 9.85525 14.5533 10.0649C14.6529 10.2502 14.7973 10.4076 14.9734 10.5228C15.1787 10.6619 15.4058 10.7655 15.6455 10.8294C15.9432 10.9156 16.2484 10.9732 16.557 11.0016L18.044 11.1024C18.3271 11.1323 18.6078 11.1814 18.8841 11.2495C19.0524 11.2884 19.2074 11.371 19.3336 11.4889C19.3833 11.5463 19.4211 11.613 19.4449 11.6851C19.4687 11.7572 19.478 11.8332 19.4722 11.9089C19.473 12.0312 19.4314 12.1499 19.3546 12.245C19.2629 12.3613 19.1408 12.45 19.0017 12.5012C18.8061 12.5778 18.6014 12.6286 18.3927 12.6524C18.099 12.6926 17.8027 12.7108 17.5063 12.7071C17.1424 12.714 16.7793 12.6716 16.4268 12.581C16.163 12.5167 15.9192 12.3883 15.7169 12.2072C15.5468 12.041 15.4311 11.8272 15.385 11.5939L14.2593 11.7619C14.311 12.0469 14.4258 12.3168 14.5953 12.5516C14.7711 12.7839 14.9945 12.9758 15.2506 13.1145C15.5523 13.2731 15.8768 13.3836 16.2126 13.4422C16.6283 13.5176 17.0502 13.5542 17.4727 13.5514C17.9304 13.557 18.3875 13.519 18.8379 13.438C19.1752 13.381 19.5005 13.2674 19.7999 13.1019C20.0369 12.9691 20.2364 12.7784 20.3795 12.5474C20.5123 12.3224 20.5806 12.0652 20.577 11.8039C20.5916 11.5058 20.5091 11.211 20.3417 10.9638C20.1628 10.7292 19.9189 10.5525 19.6402 10.4555" fill="#222222"/>
<path d="M22.7653 10.9891H26.5626V10.1406H22.7653V8.6662H26.9995V7.81348H22.7653H22.3788H21.6689V13.4549H22.3788H22.7653H27.0625V12.6021H22.7653V10.9891Z" fill="#222222"/>
<path d="M27.7095 8.6998H30.2718V13.4549H31.3766V8.6998H33.9557V7.81348H27.7095V8.6998Z" fill="#222222"/>
<path d="M34.4722 8.6998H37.0345V13.4549H38.1393V8.6998H40.7184V7.81348H34.4722V8.6998Z" fill="#222222"/>
<path d="M42.6847 10.9891H46.4821V10.1406H42.6847V8.6662H46.9189V7.81348H42.6847H42.2983H41.5884V13.4549H42.2983H42.6847H46.9819V12.6021H42.6847V10.9891Z" fill="#222222"/>
<path d="M51.8881 11.3001C52.1901 11.2897 52.4876 11.2242 52.766 11.1068C53.0546 10.9832 53.2991 10.7753 53.4675 10.5104C53.6379 10.2328 53.7241 9.91179 53.7154 9.58624C53.7188 9.33167 53.6717 9.07895 53.5767 8.84273C53.4893 8.62893 53.3542 8.43787 53.1819 8.28405C52.9958 8.12207 52.7764 8.00303 52.5392 7.9354C52.2563 7.84856 51.9613 7.80744 51.6655 7.81359H47.9521V13.455H49.0569V11.3841H50.6069L52.5308 13.455H53.9086L51.8881 11.3001ZM49.0401 10.5356V8.66631H51.4638C51.6323 8.66389 51.8004 8.68366 51.9637 8.72511C52.0939 8.75576 52.2157 8.81455 52.3208 8.89734C52.4174 8.97424 52.4914 9.07584 52.535 9.19138C52.5838 9.32588 52.6066 9.46843 52.6022 9.61144C52.6082 9.75455 52.5854 9.89741 52.535 10.0315C52.4891 10.1446 52.4154 10.2442 52.3208 10.3213C52.2138 10.4053 52.0909 10.4667 51.9595 10.502C51.798 10.5452 51.631 10.565 51.4638 10.5608L49.0401 10.5356Z" fill="#222222"/>
<path d="M5.32051 0.227349H0.523438V10.8212H3.18241L3.21182 13.4466H5.31211C7.06565 13.4466 8.74737 12.75 9.98731 11.5101C11.2272 10.2701 11.9238 8.58841 11.9238 6.83488C11.9238 5.08134 11.2272 3.39961 9.98731 2.15967C8.74737 0.919735 7.06565 0.223145 5.31211 0.223145M3.93432 5.64611C3.93431 5.55325 3.97091 5.46413 4.03618 5.39808C4.10144 5.33202 4.19012 5.29436 4.28297 5.29326H5.19029L5.40873 3.4786L5.30371 2.77291H6.07662L5.959 3.51641L6.19844 5.28486H7.01335C7.10582 5.28486 7.1945 5.32159 7.25988 5.38697C7.32527 5.45236 7.362 5.54104 7.362 5.63351V10.0021H4.00153L3.93432 5.64611ZM5.31211 12.6275H4.00993V10.8212H8.21052V5.64611C8.20945 5.3389 8.0878 5.0444 7.87175 4.82599C7.6557 4.60759 7.36253 4.48275 7.05536 4.47834H6.94614L6.81592 3.52901L7.07216 1.96219H4.38798L4.61901 3.49541L4.4972 4.48254H4.31657C4.16342 4.48254 4.01177 4.51278 3.87032 4.57151C3.72888 4.63025 3.60042 4.71633 3.49232 4.82483C3.38422 4.93332 3.2986 5.06209 3.24037 5.20374C3.18214 5.3454 3.15245 5.49715 3.15301 5.65031L3.19921 10.0063H1.32575V1.04226H5.30371C6.81356 1.08291 8.24791 1.71126 9.30144 2.79355C10.355 3.87584 10.9445 5.32658 10.9445 6.83697C10.9445 8.34736 10.355 9.79811 9.30144 10.8804C8.24791 11.9627 6.81356 12.591 5.30371 12.6317" fill="#222222"/>
<path d="M36.9463 16.9497V15.1938H38.0804C38.7231 15.1938 39.0424 15.3451 39.0424 15.6475C39.0424 15.8281 38.9164 15.9542 38.6601 16.0214C38.9752 16.097 39.1306 16.2356 39.1306 16.4414C39.1301 16.5227 39.106 16.6021 39.0612 16.6699C39.0165 16.7378 38.953 16.7912 38.8786 16.8237C38.6438 16.9229 38.3896 16.9674 38.1351 16.9539L36.9463 16.9497ZM38.0846 15.8953C38.2003 15.9022 38.3162 15.885 38.4249 15.8449C38.4573 15.8316 38.485 15.8089 38.5045 15.7797C38.5239 15.7505 38.5343 15.7162 38.5341 15.6811C38.5338 15.6482 38.5231 15.6162 38.5035 15.5898C38.4838 15.5634 38.4563 15.5439 38.4249 15.5341C38.3066 15.498 38.183 15.4823 38.0594 15.4879H37.4504V15.9079L38.0846 15.8953ZM38.0846 16.6557C38.2269 16.6642 38.3694 16.6457 38.5047 16.601C38.5415 16.5877 38.5732 16.5631 38.5951 16.5306C38.617 16.4981 38.628 16.4595 38.6265 16.4204C38.6273 16.3814 38.6161 16.3431 38.5943 16.3108C38.5724 16.2785 38.5412 16.2537 38.5047 16.2398C38.3783 16.1941 38.2441 16.1741 38.1099 16.181H37.4504V16.6557H38.0846Z" fill="#222222"/>
<path d="M40.1344 16.9497V16.2482L39.1431 15.1938H39.7311L40.4032 15.9332L41.0837 15.1938H41.6508L40.6595 16.2482V16.9497H40.1344Z" fill="#222222"/>
<path d="M44.4742 15.6896C44.4293 15.6067 44.3563 15.5427 44.2684 15.5089C44.144 15.467 44.013 15.4485 43.8819 15.4543C43.7401 15.4493 43.5984 15.4663 43.4619 15.5047C43.361 15.5383 43.3148 15.5887 43.3148 15.6518C43.3141 15.681 43.3221 15.7098 43.3378 15.7345C43.3535 15.7592 43.3762 15.7787 43.4031 15.7904C43.508 15.8308 43.6185 15.8549 43.7307 15.8618L44.2138 15.9206C44.4345 15.9337 44.6497 15.9954 44.8439 16.1012C44.9063 16.1362 44.958 16.1876 44.9936 16.2497C45.0291 16.3119 45.047 16.3825 45.0455 16.4541C45.05 16.5462 45.0241 16.6372 44.9717 16.7132C44.9193 16.7891 44.8434 16.8456 44.7556 16.8741C44.4894 16.9826 44.2026 17.0313 43.9155 17.0169C43.6963 17.0211 43.4775 16.9971 43.2644 16.9455C43.1171 16.9134 42.9818 16.8407 42.8738 16.7355C42.7802 16.6403 42.7223 16.5156 42.71 16.3827H43.2392C43.2477 16.437 43.2699 16.4883 43.3037 16.5316C43.3375 16.575 43.3818 16.609 43.4325 16.6305C43.5851 16.6946 43.7502 16.7233 43.9155 16.7145C44.0579 16.7188 44.1999 16.6989 44.3356 16.6557C44.4322 16.6179 44.4826 16.5591 44.4826 16.4835C44.4819 16.4529 44.4724 16.4232 44.4552 16.3979C44.4381 16.3726 44.4141 16.3527 44.386 16.3407C44.2889 16.2987 44.185 16.2746 44.0794 16.2692L43.6845 16.2272C43.4408 16.2153 43.2022 16.1538 42.983 16.0466C42.9161 16.0132 42.8601 15.9616 42.8214 15.8976C42.7828 15.8337 42.7631 15.7601 42.7646 15.6854C42.7644 15.633 42.776 15.5813 42.7985 15.534C42.8211 15.4867 42.854 15.4451 42.8948 15.4123C43.0056 15.3219 43.1368 15.2599 43.277 15.2317C43.4726 15.1866 43.6729 15.1654 43.8735 15.1687C44.1271 15.1578 44.3802 15.1993 44.617 15.2905C44.6977 15.3248 44.7701 15.3759 44.8295 15.4403C44.8889 15.5048 44.9339 15.5812 44.9615 15.6644L44.4742 15.6896Z" fill="#222222"/>
<path d="M46.0075 15.1938H45.4824V16.9497H46.0075V15.1938Z" fill="#222222"/>
<path d="M46.5825 16.9497V15.1938H47.1076V16.6221H48.5358L48.4686 16.9497H46.5825Z" fill="#222222"/>
<path d="M48.9058 16.9497V15.1938H50.0525C50.7078 15.1938 51.0355 15.3871 51.0355 15.7735C51.0356 15.8598 51.0122 15.9446 50.9678 16.0186C50.9234 16.0926 50.8597 16.1531 50.7834 16.1936C50.543 16.3044 50.2788 16.3534 50.0147 16.3364H49.4224V16.9329L48.9058 16.9497ZM50.0021 16.0466C50.1331 16.0556 50.2643 16.0325 50.3844 15.9794C50.4225 15.9595 50.4542 15.9292 50.4757 15.892C50.4973 15.8548 50.5079 15.8123 50.5062 15.7693C50.5085 15.7273 50.4986 15.6856 50.4777 15.6491C50.4569 15.6126 50.4259 15.5828 50.3886 15.5635C50.2678 15.513 50.1369 15.4914 50.0063 15.5005H49.4224V16.0466H50.0021Z" fill="#222222"/>
<path d="M54.0643 16.0719C54.0673 16.2483 54.0094 16.4204 53.9005 16.5592C53.7792 16.7084 53.6172 16.8193 53.4342 16.8784C52.9659 17.0297 52.4618 17.0297 51.9934 16.8784C51.8103 16.8171 51.6476 16.7067 51.523 16.5592C51.4082 16.4198 51.3471 16.244 51.3507 16.0635C51.3478 15.8871 51.4057 15.7151 51.5146 15.5763C51.6383 15.4278 51.8013 15.3171 51.985 15.257C52.453 15.1031 52.9579 15.1031 53.4258 15.257C53.6088 15.3164 53.7717 15.4255 53.8963 15.5721C54.0092 15.7122 54.0687 15.8878 54.0643 16.0677M53.5182 16.0677C53.5193 15.986 53.5007 15.9053 53.4642 15.8322C53.4276 15.7592 53.3742 15.6959 53.3082 15.6477C53.13 15.532 52.9196 15.4761 52.7075 15.488C52.4968 15.4761 52.2877 15.532 52.111 15.6477C52.0446 15.7004 51.9909 15.7674 51.954 15.8438C51.917 15.9202 51.8979 16.0039 51.8979 16.0887C51.8979 16.1736 51.917 16.2573 51.954 16.3337C51.9909 16.41 52.0446 16.4771 52.111 16.5298C52.2932 16.6345 52.4996 16.6895 52.7096 16.6895C52.9197 16.6895 53.1261 16.6345 53.3082 16.5298C53.3772 16.4796 53.4325 16.4129 53.4692 16.3359C53.5058 16.2589 53.5227 16.1739 53.5182 16.0887" fill="#222222"/>
</svg>
