<svg xmlns="http://www.w3.org/2000/svg" aria-hidden="true" style="position:absolute;width:0;height:0;overflow:hidden">
  <defs>
    <symbol id="facebook" viewBox="0 0 31 32">
      <path fill="none" stroke-linecap="round" stroke-linejoin="round" stroke-width="1.156" d="M21.955 4.967h-3.467a5.778 5.778 0 0 0-5.777 5.777v3.467H9.244v4.622h3.467v9.244h4.622v-9.244H20.8l1.156-4.622h-4.622v-3.467a1.153 1.153 0 0 1 1.155-1.155h3.467V4.967z"/>
    </symbol>
    <symbol id="instagram" viewBox="0 0 34 32">
      <path fill="none" stroke-linecap="round" stroke-linejoin="round" stroke-width="1.982" d="M23.97 1.054H9.553a7.208 7.208 0 0 0-7.208 7.208v14.417a7.208 7.208 0 0 0 7.208 7.208H23.97a7.208 7.208 0 0 0 7.208-7.208V8.262a7.208 7.208 0 0 0-7.208-7.208z"/>
      <path fill="none" stroke-linecap="round" stroke-linejoin="round" stroke-width="1.982" d="M22.529 14.562a5.764 5.764 0 0 1-6.621 6.539 5.765 5.765 0 0 1-4.777-4.777 5.767 5.767 0 1 1 11.398-1.762zM26.854 6.82a1.442 1.442 0 1 1-2.884 0 1.442 1.442 0 0 1 2.884 0z"/>
    </symbol>
    <symbol id="drink-setter" viewBox="0 0 28 32">
      <path fill="none" stroke-linecap="round" stroke-linejoin="round" stroke-width="1.471" d="M7.826 30.973v-6.279H1.391V1.56h10.926a14.552 14.552 0 0 1 9.821 4.296c2.772 2.777 4.297 6.474 4.297 10.405s-1.525 7.624-4.297 10.405a14.547 14.547 0 0 1-10.366 4.306H7.826zm1.515-19.222a1.707 1.707 0 0 0-1.685 1.705l.17 11.233h9.636V13.422c0-.453-.175-.882-.497-1.198a1.677 1.677 0 0 0-1.198-.497h-1.15l-.443-3.283.414-2.64H10.73l.38 2.553-.404 3.39H9.342v.005z"/>
    </symbol>
  </defs>
</svg>
