<svg width="200" height="49" viewBox="0 0 200 49" fill="none" xmlns="http://www.w3.org/2000/svg">
<path d="M188.741 48.8264L188.674 48.7759C134.805 10.0969 65.1763 10.0969 11.3248 48.7759L11.2534 48.8264L11.2072 48.7549L0.348633 33.3808L0.420043 33.3346C30.0174 11.983 64.4496 0.700195 99.995 0.700195C135.54 0.700195 169.977 11.983 199.578 33.3346L199.646 33.3808L188.741 48.8264ZM99.9992 19.6028C130.874 19.6028 161.748 29.2642 188.699 48.5869L199.415 33.4144C139.01 -10.1037 60.9841 -10.1037 0.583866 33.4186L11.2954 48.5869C38.2254 29.2642 69.1207 19.6028 99.9992 19.6028Z" fill="#222222" stroke="black" stroke-width="0.227273"/>
<path d="M187.926 44.5039L187.842 44.4451C161.185 26.3237 130.81 16.7548 99.9992 16.7548C69.1878 16.7548 38.8092 26.3237 12.1522 44.4451L12.0682 44.5039L4.72559 34.0696L4.8138 34.0066C33.5416 14.3058 66.4533 3.89258 99.995 3.89258C133.537 3.89258 166.452 14.3058 195.18 34.0066L195.269 34.0696L187.926 44.5039ZM99.9992 16.5448C130.819 16.5448 161.202 26.1095 187.876 44.214L194.975 34.1326C166.305 14.4823 133.461 4.10261 99.995 4.10261C66.5289 4.10261 33.6929 14.4823 5.04063 34.12L12.1438 44.2014C38.7924 26.1095 69.1752 16.5448 99.9992 16.5448Z" fill="#222222" stroke="black" stroke-width="0.227273"/>
<path d="M30.5593 24.7823C30.507 24.6716 30.4135 24.5857 30.2989 24.5428C30.2459 24.5197 30.1887 24.5078 30.1309 24.5078C30.073 24.5078 30.0158 24.5197 29.9628 24.5428L29.8872 24.5806L29.8242 24.5344L30.3241 24.2992L30.5593 24.7823ZM30.7147 24.1144L32.9074 28.735L32.4874 28.9282L30.2947 24.3076L30.7147 24.1144ZM31.9245 23.5389C32.3256 23.336 32.7742 23.246 33.2225 23.2785C33.6436 23.3052 34.0486 23.4508 34.3903 23.6985C34.7559 23.9845 35.0446 24.3569 35.2304 24.7823C35.438 25.2007 35.539 25.6638 35.5244 26.1307C35.4973 26.5556 35.3518 26.9645 35.1044 27.311C34.8416 27.6771 34.4865 27.967 34.0752 28.1511L32.8024 28.8022L32.7016 28.609L33.1847 28.3864L33.6047 28.1973L34.0248 27.9747C34.3569 27.8271 34.6365 27.5826 34.8271 27.2732C35.0105 26.9604 35.1023 26.6023 35.0918 26.2399C35.0798 25.8176 34.9751 25.4032 34.7851 25.0259C34.6131 24.6388 34.3595 24.2935 34.0416 24.0136C33.7657 23.7773 33.4299 23.6218 33.0713 23.5641C32.7119 23.5163 32.3464 23.5762 32.0211 23.7363L31.5339 23.9674L31.1138 24.1648L30.6181 24.3958L30.5257 24.1984L31.9245 23.5389ZM32.2774 28.4494L32.5042 28.9367L32.0085 29.1677L31.9749 29.1047L32.0589 29.0669C32.111 29.0415 32.1574 29.0057 32.1949 28.9616C32.2325 28.9175 32.2606 28.8661 32.2774 28.8106C32.3212 28.6985 32.3212 28.5741 32.2774 28.462V28.4494Z" fill="#222222"/>
<path d="M36.4654 22.0642C36.4155 21.9538 36.3253 21.8666 36.2133 21.8205C36.1603 21.7974 36.1031 21.7854 36.0453 21.7854C35.9875 21.7854 35.9303 21.7974 35.8773 21.8205L35.7975 21.8583L35.7681 21.7911L36.2721 21.5685L36.4654 22.0642ZM36.6418 21.4047L38.6959 26.1009L38.2758 26.2815L36.2301 21.5811L36.6418 21.4047ZM36.835 21.9003L36.6208 21.4131L37.1249 21.1904L37.1543 21.2576L37.0745 21.2954C37.0216 21.3189 36.9742 21.3531 36.9352 21.3957C36.8961 21.4383 36.8663 21.4886 36.8476 21.5433C36.8035 21.6568 36.8035 21.7826 36.8476 21.8961L36.835 21.9003ZM38.0952 25.7817L38.3094 26.2731L37.8054 26.4916L37.7759 26.4244L37.86 26.3908C37.9129 26.3682 37.9602 26.3343 37.9987 26.2915C38.0372 26.2487 38.0658 26.198 38.0826 26.1429C38.1288 26.0298 38.1288 25.9032 38.0826 25.7901L38.0952 25.7817ZM38.4648 25.6221C38.5161 25.7315 38.6058 25.8182 38.7169 25.8657C38.7699 25.8888 38.8271 25.9008 38.8849 25.9008C38.9427 25.9008 38.9999 25.8888 39.0529 25.8657L39.1327 25.8279L39.1621 25.8951L38.6581 26.1135L38.4648 25.6221Z" fill="#222222"/>
<path d="M40.0822 19.8383L40.3048 19.7627C40.3888 19.7417 40.4686 19.7207 40.5526 19.708L40.7753 19.6702C40.8297 19.6642 40.8847 19.6642 40.9391 19.6702L41.2457 20.4221L41.1869 20.4432C41.1519 20.3467 41.0961 20.259 41.0236 20.1865C40.951 20.1139 40.8634 20.0581 40.7669 20.0231C40.5622 19.9529 40.3383 19.9644 40.1419 20.0552C39.9455 20.1459 39.7917 20.309 39.7125 20.5104C39.6296 20.7137 39.6296 20.9413 39.7125 21.1446C39.7583 21.2447 39.8177 21.338 39.889 21.4219C39.9803 21.5265 40.0936 21.6097 40.2208 21.6655L42.006 22.3754C42.1689 22.4401 42.3132 22.544 42.4261 22.6779C42.5222 22.7981 42.6014 22.9309 42.6613 23.0727C42.8139 23.4012 42.8334 23.776 42.7159 24.1187C42.6535 24.2819 42.5566 24.4298 42.432 24.5523C42.3073 24.6748 42.1578 24.769 41.9934 24.8286C41.872 24.876 41.747 24.9139 41.6196 24.942C41.472 24.9742 41.3212 24.9897 41.1701 24.9882C41.0251 24.9881 40.8818 24.9566 40.7501 24.8958C40.6999 24.8125 40.6564 24.7254 40.6199 24.6353C40.5739 24.5205 40.536 24.4026 40.5064 24.2825C40.4755 24.1652 40.453 24.0459 40.4392 23.9254L40.498 23.9002C40.5573 24.1162 40.6717 24.313 40.8299 24.4715C40.9637 24.6043 41.1354 24.6924 41.3214 24.7236C41.5081 24.7523 41.6992 24.7214 41.8674 24.6353C42.0894 24.5346 42.2661 24.3549 42.3631 24.1313C42.415 24.0127 42.4419 23.8847 42.4419 23.7553C42.4419 23.6259 42.415 23.4979 42.3631 23.3794C42.3137 23.2582 42.2425 23.1472 42.1531 23.0517C42.0684 22.9649 41.9669 22.8963 41.8548 22.8501L40.141 22.1444C39.9795 22.0754 39.8358 21.9706 39.7209 21.8377C39.6165 21.7203 39.5315 21.587 39.4689 21.4429C39.3825 21.2617 39.3367 21.0639 39.3345 20.8632C39.3464 20.6537 39.4162 20.4516 39.5361 20.2793C39.6688 20.08 39.8594 19.926 40.0822 19.8383ZM40.9223 19.582L40.9811 19.7249L40.4938 19.9223L40.4392 19.7795L40.9223 19.582Z" fill="#222222"/>
<path d="M42.6611 18.7626C42.7324 18.7694 42.8041 18.7694 42.8754 18.7626L43.1862 18.6996C43.2902 18.6769 43.3927 18.6474 43.4929 18.6113L42.7367 18.981L42.6611 18.7626ZM46.4417 17.5024L46.5215 17.7082L42.7956 19.107L42.7199 18.9012L46.4417 17.5024ZM43.2324 18.918V18.939C43.1314 18.9825 43.0514 19.064 43.0098 19.1658C42.9878 19.2177 42.9765 19.2734 42.9765 19.3296C42.9765 19.3859 42.9878 19.4416 43.0098 19.4935L43.056 19.6111L42.993 19.6405L42.783 19.086L43.2324 18.918ZM44.7992 18.1493L46.5929 22.9296L46.1728 23.0892L44.3792 18.3089L44.7992 18.1493ZM46.009 22.5809L46.1938 23.0808L45.6814 23.274L45.6562 23.2068L45.7402 23.1732C45.7941 23.1535 45.8431 23.1222 45.8838 23.0816C45.9244 23.0409 45.9557 22.9919 45.9754 22.938C46.0214 22.8263 46.0214 22.701 45.9754 22.5893L46.009 22.5809ZM46.3955 17.3806L46.4711 17.578L45.6604 17.7964C45.7593 17.7585 45.8561 17.715 45.9502 17.6662C46.051 17.6116 46.1392 17.557 46.2232 17.5066C46.2827 17.4665 46.3364 17.4184 46.3829 17.3638L46.3955 17.3806ZM46.5131 17.6872L46.7231 18.2459H46.6559L46.6097 18.1283C46.5919 18.0743 46.5634 18.0246 46.5259 17.982C46.4883 17.9394 46.4425 17.9048 46.3913 17.8804C46.2902 17.8396 46.1773 17.8396 46.0762 17.8804V17.8594L46.5131 17.6872ZM46.3871 22.4381C46.4328 22.5523 46.5197 22.6453 46.6307 22.6985C46.6831 22.7211 46.7396 22.7327 46.7966 22.7327C46.8537 22.7327 46.9101 22.7211 46.9625 22.6985L47.0465 22.6691L47.0718 22.7363L46.5593 22.9296L46.3871 22.4381Z" fill="#222222"/>
<path d="M48.6934 17.2757C48.6499 17.1617 48.5662 17.0676 48.4582 17.011C48.4078 16.9837 48.3523 16.9671 48.2953 16.962C48.2382 16.957 48.1807 16.9636 48.1263 16.9816L48.0423 17.011L48.0171 16.9438L48.538 16.7632L48.6934 17.2757ZM48.9244 16.6288L50.6047 21.4804L50.1846 21.6233L48.5044 16.7758L48.9244 16.6288ZM49.0756 17.1412L48.9034 16.6372L49.4243 16.4565V16.528L49.3403 16.5574C49.2856 16.5751 49.2355 16.6047 49.1934 16.6438C49.1513 16.683 49.1183 16.7309 49.0966 16.7842C49.0457 16.895 49.0382 17.0209 49.0756 17.137V17.1412ZM50.0166 21.1108L50.1888 21.6191L49.6679 21.7955V21.7283L49.7519 21.6989C49.8059 21.6797 49.8553 21.6496 49.8972 21.6106C49.9391 21.5716 49.9726 21.5245 49.9956 21.472C50.0396 21.3586 50.0396 21.2327 49.9956 21.1192L50.0166 21.1108ZM50.3988 20.9806C50.4395 21.0949 50.5221 21.1895 50.6299 21.2452C50.6802 21.2725 50.7357 21.2892 50.7927 21.2942C50.8498 21.2993 50.9073 21.2926 50.9617 21.2746L51.0457 21.2452L51.0709 21.3166L50.55 21.4931L50.3988 20.9806Z" fill="#222222"/>
<path d="M51.9445 16.1878C51.9057 16.0726 51.8246 15.9765 51.7176 15.9189C51.6678 15.8903 51.6127 15.8721 51.5556 15.8656C51.4985 15.8591 51.4407 15.8644 51.3858 15.8811L51.3018 15.9063V15.8391L51.8226 15.6753L51.9445 16.1878ZM52.1881 15.5493L53.7297 20.443L53.3096 20.5732L51.7722 15.6837L52.1881 15.5493ZM52.3309 16.0659L52.1671 15.5577L52.6922 15.3896V15.4611L52.6081 15.4863C52.5531 15.504 52.5022 15.5329 52.4589 15.5713C52.4155 15.6096 52.3805 15.6564 52.3561 15.7089C52.3046 15.8178 52.2942 15.9416 52.3267 16.0575L52.3309 16.0659ZM53.171 20.0607L53.3306 20.569L52.8056 20.7328V20.6656L52.8896 20.6362C52.9443 20.6189 52.9949 20.5906 53.0382 20.5531C53.0816 20.5155 53.1167 20.4694 53.1416 20.4178C53.1953 20.308 53.2058 20.182 53.171 20.0649V20.0607ZM55.4393 19.6658L55.5065 19.8843L53.7087 20.443L53.6415 20.2245L55.4393 19.6658ZM55.5486 18.6241L55.5276 19.8843L54.4396 20.2287L54.6076 19.9389C54.8045 19.8834 54.9857 19.7827 55.1369 19.6448C55.2553 19.5286 55.3421 19.384 55.3889 19.2248C55.4402 19.0438 55.4726 18.858 55.4855 18.6703L55.5486 18.6241Z" fill="#222222"/>
<path d="M56.5865 14.772H56.5654C56.5308 14.654 56.4527 14.5535 56.347 14.4906C56.2978 14.4605 56.243 14.4409 56.1859 14.433C56.1288 14.425 56.0707 14.4289 56.0152 14.4444L55.9312 14.4696L55.9102 14.3982L56.4394 14.2512L56.5865 14.772ZM56.8511 14.1419L58.2373 19.0776L57.8172 19.1995L56.431 14.2638L56.8511 14.1419ZM56.9771 14.6628L56.8301 14.1419L57.3594 13.9907V14.0621L57.2711 14.0873C57.2164 14.1031 57.1655 14.1299 57.1214 14.166C57.0774 14.2021 57.0411 14.2468 57.0149 14.2974C56.957 14.4055 56.942 14.5315 56.9729 14.6502L56.9771 14.6628ZM57.6828 18.6786L57.8298 19.1953L57.3006 19.3423V19.2709L57.3888 19.2499C57.4438 19.2336 57.495 19.2062 57.5391 19.1693C57.5832 19.1325 57.6192 19.087 57.645 19.0356C57.7007 18.9283 57.7156 18.8045 57.687 18.687L57.6828 18.6786ZM59.9637 18.3593L60.0225 18.5778L58.2205 19.086L58.1575 18.8676L59.9637 18.3593ZM60.1065 17.3218L60.0435 18.582L58.9472 18.8886L59.1236 18.603C59.3219 18.5535 59.506 18.4586 59.6613 18.3257C59.7851 18.2108 59.8776 18.0662 59.9301 17.9057C59.9858 17.7266 60.0224 17.5422 60.0393 17.3554L60.1065 17.3218Z" fill="#222222"/>
<path d="M61.274 13.5036H61.253C61.2397 13.4446 61.2146 13.3889 61.1793 13.3398C61.1439 13.2907 61.099 13.2493 61.0472 13.218C60.999 13.1858 60.9446 13.164 60.8875 13.1538C60.8303 13.1437 60.7717 13.1455 60.7154 13.1592H60.6356L60.6104 13.0878L61.1438 12.9575L61.274 13.5036ZM61.5555 12.8819L62.7905 17.8596L62.3704 17.9646L61.1354 12.9869L61.5555 12.8819ZM63.3575 12.4367L63.4122 12.6551L61.5933 13.1046L61.5387 12.8819L63.3575 12.4367ZM62.2486 17.4396L62.3746 17.9604L61.8411 18.0907V18.0234L61.9293 17.9982C61.9849 17.9844 62.037 17.9594 62.0825 17.9247C62.128 17.8901 62.1659 17.8465 62.194 17.7966C62.2522 17.6902 62.2701 17.5665 62.2444 17.448L62.2486 17.4396ZM63.6684 14.9192L63.723 15.1334L62.1898 15.5115L62.1352 15.2973L63.6684 14.9192ZM63.3281 12.3022L63.3785 12.5081L62.5384 12.6341C62.6428 12.6075 62.7453 12.5738 62.8451 12.5333L63.1349 12.4073C63.2024 12.38 63.2671 12.3462 63.3281 12.3064V12.3022ZM64.5337 17.1875L64.5883 17.4102L62.7695 17.8596L62.7149 17.637L64.5337 17.1875ZM63.429 12.6341L63.5676 13.2012H63.5004L63.471 13.0752C63.4434 12.9664 63.3778 12.871 63.2861 12.8063C63.193 12.7458 63.0797 12.7247 62.9711 12.7475L63.429 12.6341ZM63.576 14.4697L63.6936 14.9402L63.3071 15.0326C63.3504 15.0198 63.3906 14.9983 63.4253 14.9694C63.4599 14.9405 63.4883 14.9049 63.5088 14.8646C63.5522 14.7819 63.5627 14.6859 63.5382 14.5958V14.4992L63.576 14.4697ZM63.7398 15.125L63.8574 15.5913H63.7902L63.7608 15.4863C63.7516 15.441 63.7335 15.398 63.7075 15.3598C63.6816 15.3216 63.6483 15.2889 63.6096 15.2637C63.5739 15.2372 63.5326 15.2192 63.4889 15.2112C63.4452 15.2032 63.4003 15.2053 63.3575 15.2175L63.7398 15.125ZM64.7311 16.1584L64.6303 17.4186L63.5256 17.6916L63.7104 17.4102C63.9109 17.369 64.0983 17.2796 64.2565 17.1497C64.385 17.0364 64.482 16.8917 64.5379 16.7297C64.5994 16.5527 64.6417 16.3696 64.6639 16.1836L64.7311 16.1584Z" fill="#222222"/>
<path d="M66.1387 12.3442C66.1111 12.2264 66.0407 12.1231 65.9412 12.0543C65.8945 12.0205 65.8412 11.9968 65.7849 11.9845C65.7285 11.9722 65.6702 11.9717 65.6136 11.9829L65.5254 12.0039V11.9325L66.0631 11.8191L66.1387 12.3442ZM66.4453 11.7351L67.5039 16.7506L67.0838 16.843L66.0253 11.8275L66.4453 11.7351ZM67.2854 11.5502C67.473 11.5171 67.6649 11.5171 67.8525 11.5502C68.0205 11.576 68.1809 11.6376 68.323 11.7309C68.4618 11.8306 68.5801 11.9561 68.6716 12.1005C68.7716 12.2676 68.8413 12.4511 68.8775 12.6424C68.9291 12.8588 68.9334 13.0837 68.8901 13.3019C68.8367 13.5227 68.7332 13.7282 68.5876 13.9026C68.4472 14.066 68.2567 14.1782 68.0457 14.2218C68.1534 14.2507 68.2537 14.3022 68.3398 14.373C68.449 14.4571 68.5498 14.5411 68.638 14.6209C68.7976 14.7805 68.9363 14.9191 69.0581 15.0409L69.4193 15.377C69.5411 15.4862 69.642 15.5702 69.726 15.6332C69.8306 15.714 69.94 15.7884 70.0536 15.8558C70.1564 15.9181 70.2684 15.9635 70.3855 15.9903C70.5072 16.0177 70.6334 16.0177 70.7551 15.9903V16.0617L70.3855 16.1415C70.2011 16.1789 70.0111 16.1789 69.8268 16.1415C69.679 16.1074 69.5373 16.0507 69.4067 15.9735C69.2955 15.9049 69.1888 15.8291 69.0875 15.7466L68.9405 15.6038L68.659 15.3224L68.3314 14.9989L68.0583 14.7217L67.9239 14.5915C67.8148 14.49 67.6967 14.3986 67.5711 14.3184C67.4644 14.2451 67.3332 14.2165 67.2056 14.2386V14.1672C67.3263 14.1504 67.4456 14.1251 67.5627 14.0916C67.6894 14.0572 67.8131 14.0122 67.9323 13.9572C68.0702 13.8901 68.1899 13.7907 68.281 13.6673C68.3879 13.5064 68.4476 13.3186 68.4532 13.1255C68.459 13.0584 68.459 12.9909 68.4532 12.9238C68.4457 12.8444 68.4316 12.7657 68.4112 12.6886C68.3623 12.4086 68.2237 12.1521 68.0163 11.9577C67.9254 11.8797 67.8185 11.8227 67.703 11.7908C67.5876 11.7588 67.4665 11.7527 67.3484 11.7729C67.2224 11.7729 67.0922 11.8149 66.9578 11.8443L66.4915 11.9493C66.4857 11.928 66.4757 11.908 66.4621 11.8905L66.3781 11.7393L67.2854 11.5502ZM66.9536 16.3137L67.067 16.8388L66.5293 16.9522V16.8808H66.6175C66.6735 16.868 66.7262 16.8439 66.7724 16.8099C66.8186 16.776 66.8574 16.7329 66.8864 16.6834C66.952 16.5813 66.976 16.4581 66.9536 16.3389V16.3137ZM67.3526 16.2339H67.3736C67.3847 16.2927 67.4075 16.3487 67.4407 16.3985C67.4739 16.4483 67.5168 16.4909 67.5669 16.5237C67.6145 16.5574 67.6686 16.5807 67.7257 16.5923C67.7829 16.6038 67.8418 16.6034 67.8987 16.591H67.9785V16.6666L67.4451 16.7758L67.3526 16.2339Z" fill="#222222"/>
<path d="M71.5738 11.2562C71.5515 11.1362 71.4838 11.0293 71.3848 10.9579C71.3387 10.9227 71.2857 10.8974 71.2293 10.8837C71.1729 10.87 71.1143 10.8681 71.0572 10.8781H70.9731V10.8067L71.515 10.7101L71.5738 11.2562ZM71.8973 10.6555L72.813 15.6962L72.3719 15.776L71.4562 10.7353L71.8973 10.6555ZM72.3173 15.2509L72.4139 15.776L71.8721 15.8726V15.8012H71.9603C72.0167 15.7909 72.0703 15.7693 72.118 15.7375C72.1657 15.7057 72.2064 15.6645 72.2375 15.6164C72.305 15.5151 72.3306 15.3917 72.3089 15.2719L72.3173 15.2509ZM71.9729 11.2016L71.8763 10.6765L72.4181 10.5757V10.6471H72.3299C72.2732 10.6579 72.2193 10.6802 72.1716 10.7127C72.1239 10.7452 72.0834 10.7873 72.0527 10.8361C71.9852 10.9374 71.9597 11.0608 71.9813 11.1806L71.9729 11.2016ZM72.6954 15.1921H72.7164C72.7405 15.3103 72.8079 15.4152 72.9054 15.4862C72.9515 15.5214 73.0045 15.5467 73.0609 15.5604C73.1173 15.5741 73.1759 15.576 73.2331 15.566H73.3213V15.6374L72.7794 15.7382L72.6954 15.1921Z" fill="#222222"/>
<path d="M74.947 10.6768C74.9383 10.617 74.9179 10.5594 74.8869 10.5075C74.8559 10.4556 74.8149 10.4103 74.7663 10.3744C74.7214 10.3382 74.6694 10.3118 74.6138 10.2966C74.5582 10.2814 74.5 10.2778 74.4429 10.2861H74.3589V10.2147L74.9008 10.1307L74.947 10.6768ZM75.2872 10.0845L76.0601 15.1504L75.6401 15.2218L74.842 10.1517L75.2872 10.0845ZM75.5603 14.7052L75.6401 15.2344L75.094 15.3184V15.2428H75.1822C75.2395 15.2352 75.2944 15.215 75.343 15.1838C75.3916 15.1526 75.4328 15.1111 75.4636 15.0622C75.5332 14.9633 75.5632 14.8419 75.5477 14.722L75.5603 14.7052ZM77.1187 9.81987L77.1523 10.0425L75.2998 10.3281L75.2662 10.1013L77.1187 9.81987ZM77.2027 12.3402L77.2363 12.5545L75.6737 12.7939L75.6401 12.5797L77.2027 12.3402ZM77.858 14.6758L77.8916 14.9026L76.0391 15.184L76.0055 14.9614L77.858 14.6758ZM77.0977 9.70226L77.1313 9.91229L76.2912 9.95849C76.3966 9.94335 76.5005 9.91947 76.602 9.88708C76.7112 9.85768 76.812 9.82407 76.9044 9.79047C76.9732 9.75896 77.0381 9.71949 77.0977 9.67285V9.70226ZM77.1481 10.0341L77.2363 10.6138H77.1691V10.4836C77.1507 10.3717 77.0925 10.2703 77.0053 10.1979C76.9186 10.1293 76.8085 10.0976 76.6986 10.1097L77.1481 10.0341ZM78.131 13.634L77.9168 14.869L76.791 15.0412L77.0011 14.7808C77.2039 14.7562 77.3982 14.6843 77.5681 14.5707C77.7076 14.4696 77.8177 14.3334 77.8874 14.1759C77.9662 14.0068 78.0254 13.8292 78.0638 13.6466L78.131 13.634ZM77.1355 11.8446L77.2111 12.3234L76.8162 12.3864C76.8604 12.3788 76.9025 12.3618 76.9394 12.3364C76.9764 12.311 77.0075 12.2779 77.0305 12.2394C77.0833 12.162 77.1043 12.0673 77.0893 11.9748V11.874L77.1355 11.8446ZM77.2363 12.5125L77.3119 12.9913H77.2447V12.8821C77.2309 12.7896 77.1829 12.7057 77.1103 12.6469C77.076 12.6189 77.0362 12.5984 76.9935 12.5869C76.9508 12.5753 76.9061 12.5728 76.8624 12.5797L77.2363 12.5125Z" fill="#222222"/>
<path d="M80.6512 9.24015C80.7309 9.23328 80.811 9.23328 80.8907 9.24015C80.9732 9.23585 81.056 9.23585 81.1385 9.24015L81.3653 9.26115C81.4196 9.26886 81.473 9.28152 81.525 9.29896L81.6216 10.1055H81.5586C81.5527 10.0024 81.5235 9.90204 81.4733 9.81184C81.4231 9.72164 81.3532 9.64395 81.2687 9.5846C81.0901 9.46224 80.8711 9.41359 80.6574 9.44881C80.4437 9.48403 80.2519 9.60039 80.122 9.77362C79.9907 9.94938 79.9335 10.1695 79.9623 10.3869C79.9791 10.4974 80.0116 10.6049 80.059 10.7062C80.1189 10.8307 80.2066 10.9399 80.3152 11.0254L81.819 12.1848C81.9635 12.2933 82.0765 12.4383 82.1467 12.6048C82.2075 12.7455 82.2485 12.8939 82.2685 13.0459C82.3288 13.404 82.2474 13.7716 82.0416 14.0708C81.9397 14.2125 81.8078 14.3299 81.6554 14.4149C81.5029 14.4998 81.3336 14.5501 81.1595 14.5623C81.0295 14.5733 80.8988 14.5733 80.7689 14.5623C80.6176 14.558 80.4678 14.5325 80.3236 14.4867C80.1865 14.4499 80.059 14.384 79.9497 14.2935C79.924 14.1999 79.9057 14.1043 79.8951 14.0078C79.8865 13.8834 79.8865 13.7584 79.8951 13.634C79.8949 13.5128 79.9062 13.3918 79.9287 13.2727H79.9876C79.988 13.4964 80.0458 13.7163 80.1556 13.9112C80.2529 14.0768 80.3999 14.2076 80.5756 14.2851C80.7485 14.361 80.9403 14.383 81.1259 14.3481C81.3667 14.3069 81.5845 14.1801 81.7392 13.991C81.818 13.8889 81.875 13.7718 81.9068 13.6468C81.9385 13.5218 81.9444 13.3916 81.924 13.2643C81.9117 13.1328 81.8717 13.0053 81.8064 12.8905C81.7507 12.7834 81.6718 12.6901 81.5754 12.6174L80.1094 11.4833C79.9633 11.3732 79.8464 11.229 79.7691 11.0632C79.6988 10.9234 79.6519 10.773 79.6305 10.6179C79.605 10.4141 79.6266 10.2072 79.6935 10.0131C79.7615 9.81288 79.8836 9.63548 80.0464 9.50058C80.2175 9.35542 80.4282 9.26472 80.6512 9.24015ZM81.4914 9.20654L81.5124 9.36197L80.9915 9.42497V9.26955L81.4914 9.20654Z" fill="#222222"/>
<path d="M89.0524 8.45429C89.5037 8.4158 89.9569 8.50151 90.363 8.70213C90.7488 8.89979 91.0707 9.20273 91.2914 9.57585C91.5406 9.99445 91.6847 10.4672 91.7114 10.9536C91.7542 11.4366 91.6778 11.9227 91.4888 12.3692C91.3198 12.7685 91.0418 13.1121 90.6865 13.3606C90.3115 13.6108 89.8764 13.7558 89.4263 13.7806C88.9776 13.8204 88.5268 13.7346 88.1241 13.5328C87.7374 13.3365 87.4151 13.0332 87.1958 12.6591C86.9465 12.2405 86.8024 11.7677 86.7757 11.2813C86.7329 10.7983 86.8094 10.3122 86.9983 9.86569C87.1644 9.4671 87.4396 9.12348 87.7923 8.87435C88.1659 8.6215 88.6018 8.47619 89.0524 8.45429ZM89.3927 13.558C89.7555 13.541 90.1038 13.4102 90.3882 13.1842C90.6739 12.9472 90.889 12.6362 91.0099 12.2852C91.1542 11.8687 91.2086 11.4263 91.1695 10.9872C91.1478 10.5492 91.0363 10.1202 90.8419 9.72707C90.6755 9.3959 90.4212 9.11689 90.1068 8.92056C89.7939 8.73833 89.4338 8.6534 89.0725 8.67659C88.7112 8.69978 88.3649 8.83005 88.0779 9.05078C87.7879 9.28389 87.5671 9.59182 87.4394 9.9413C87.2949 10.3563 87.2404 10.7974 87.2798 11.2351C87.3015 11.6732 87.413 12.1021 87.6074 12.4953C87.7744 12.8261 88.0286 13.105 88.3425 13.3018C88.6512 13.4944 89.013 13.5842 89.3759 13.558H89.3927Z" fill="#222222"/>
<path d="M93.8163 8.84946H93.7953C93.7943 8.78974 93.7816 8.7308 93.7578 8.67602C93.734 8.62123 93.6997 8.57169 93.6567 8.53022C93.6158 8.48846 93.5667 8.45568 93.5124 8.43398C93.4582 8.41228 93.4 8.40214 93.3416 8.4042H93.2534V8.33279H93.8037L93.8163 8.84946ZM93.9339 12.9072V13.4407H93.3836V13.3861H93.476C93.5336 13.3843 93.5901 13.3707 93.6421 13.3461C93.6941 13.3215 93.7405 13.2865 93.7785 13.2433C93.8589 13.1516 93.9023 13.0333 93.9003 12.9114L93.9339 12.9072ZM94.228 8.28658L94.375 13.4113H93.9297L93.7785 8.28238L94.228 8.28658ZM96.0804 8.23198V8.45881L94.207 8.51341V8.30339L96.0804 8.23198ZM95.8578 10.7523V10.9708L94.2784 11.017V10.7817L95.8578 10.7523ZM94.3372 12.882C94.3441 13.0044 94.3966 13.1198 94.4842 13.2055C94.5229 13.2477 94.5705 13.2808 94.6235 13.3026C94.6765 13.3244 94.7336 13.3343 94.7908 13.3315H94.879V13.4071H94.3288L94.3372 12.882ZM96.0762 8.10596V8.32019L95.2361 8.26138C95.3416 8.25724 95.4467 8.24742 95.5511 8.23198C95.6646 8.21097 95.7696 8.19417 95.862 8.16897C95.9351 8.16064 96.007 8.14372 96.0762 8.11856V8.10596ZM95.8452 10.2693V10.7523H95.4461C95.4908 10.7482 95.5342 10.7354 95.5738 10.7145C95.6134 10.6936 95.6486 10.665 95.6772 10.6305C95.7082 10.5959 95.732 10.5553 95.7472 10.5113C95.7623 10.4673 95.7685 10.4207 95.7654 10.3743V10.2735L95.8452 10.2693ZM95.8452 10.9414V11.4244H95.7738V11.3278C95.7746 11.2818 95.7661 11.2362 95.7487 11.1936C95.7314 11.151 95.7056 11.1123 95.673 11.08C95.6439 11.0465 95.6076 11.0201 95.5669 11.0026C95.5261 10.9852 95.482 10.9772 95.4377 10.9792L95.8452 10.9414ZM96.0678 8.442V8.93347H95.9964V8.82426C95.9931 8.73071 95.954 8.642 95.8872 8.57642C95.8569 8.54334 95.8198 8.5172 95.7785 8.4998C95.7372 8.4824 95.6926 8.47415 95.6478 8.47561V8.45461L96.0678 8.442Z" fill="#222222"/>
<path d="M101.1 8.42081V8.44182C101.045 8.44061 100.99 8.45124 100.939 8.47297C100.888 8.49471 100.843 8.52705 100.806 8.56783C100.766 8.60758 100.735 8.65482 100.714 8.70675C100.693 8.75869 100.683 8.81429 100.684 8.87028V8.9963H100.617V8.40401L101.1 8.42081ZM104.603 8.2948V8.51743L100.629 8.42922V8.21078L104.603 8.2948ZM100.634 8.08057C100.7 8.10877 100.769 8.12989 100.839 8.14358C100.932 8.16458 101.037 8.18138 101.15 8.19818C101.254 8.21761 101.36 8.22745 101.465 8.22759L100.625 8.2906L100.634 8.08057ZM102.314 12.8482V13.3817H101.763V13.3019H101.856C101.913 13.3023 101.97 13.2909 102.023 13.2685C102.075 13.2461 102.123 13.2132 102.163 13.1717C102.249 13.0856 102.3 12.9701 102.305 12.8482H102.314ZM102.839 8.2864L102.73 13.3943H102.284L102.394 8.26119L102.839 8.2864ZM102.721 12.8566H102.742C102.74 12.9794 102.785 13.0983 102.868 13.1885C102.906 13.2322 102.952 13.2673 103.004 13.2912C103.056 13.3151 103.113 13.3274 103.171 13.3271H103.259V13.3985H102.709L102.721 12.8566ZM104.595 8.16458V8.37461L103.755 8.26119C103.861 8.26929 103.968 8.26929 104.074 8.26119C104.187 8.26119 104.292 8.23599 104.389 8.21919C104.459 8.20803 104.528 8.18974 104.595 8.16458ZM104.595 8.49222V9.10131H104.527V8.97529C104.531 8.86103 104.49 8.74987 104.414 8.66445C104.342 8.58363 104.241 8.53395 104.133 8.52583L104.595 8.49222Z" fill="#222222"/>
<path d="M106.544 12.9827L106.51 13.5161L105.964 13.4825V13.4111H106.053C106.11 13.4137 106.167 13.4046 106.22 13.3844C106.274 13.3641 106.322 13.3332 106.363 13.2935C106.455 13.2112 106.51 13.0968 106.519 12.9743L106.544 12.9827ZM106.783 8.92909H106.762C106.769 8.80799 106.728 8.68911 106.649 8.59724C106.613 8.55219 106.567 8.51513 106.516 8.48838C106.465 8.46164 106.409 8.44579 106.351 8.44182H106.275V8.36621L106.825 8.39982L106.783 8.92909ZM107.241 8.42082L106.935 13.5413L106.489 13.5119L106.796 8.39561L107.241 8.42082ZM106.947 13.0037H106.968C106.963 13.1246 107.003 13.2432 107.082 13.3355C107.118 13.3806 107.163 13.4176 107.215 13.4444C107.266 13.4711 107.322 13.487 107.38 13.4909H107.468V13.5623L106.922 13.5329L106.947 13.0037ZM109.959 11.0714V11.2898L107.019 11.1176V10.895L109.959 11.0714ZM107.187 8.9711L107.22 8.43762L107.771 8.47123V8.54264H107.678C107.621 8.53758 107.563 8.54553 107.509 8.56589C107.456 8.58626 107.407 8.61851 107.367 8.66025C107.277 8.74153 107.222 8.85427 107.212 8.9753L107.187 8.9711ZM109.791 13.1927L109.762 13.722L109.216 13.6758V13.6043H109.308C109.366 13.6075 109.424 13.5987 109.478 13.5784C109.532 13.5582 109.581 13.527 109.623 13.4867C109.668 13.4463 109.705 13.3973 109.731 13.3424C109.757 13.2876 109.772 13.2281 109.774 13.1675L109.791 13.1927ZM110.035 9.13912H110.014C110.019 9.07932 110.011 9.01914 109.993 8.96215C109.974 8.90516 109.944 8.8525 109.905 8.80727C109.868 8.76172 109.822 8.72436 109.77 8.69759C109.718 8.67082 109.661 8.65525 109.602 8.65185H109.514V8.55524L110.06 8.58884L110.035 9.13912ZM110.476 8.61405L110.186 13.722H109.741L110.056 8.58884L110.476 8.61405ZM110.182 13.1969H110.203C110.197 13.3179 110.238 13.4364 110.316 13.5287C110.352 13.5738 110.398 13.6109 110.449 13.6376C110.5 13.6643 110.557 13.6802 110.614 13.6842H110.703V13.7556L110.165 13.722L110.182 13.1969ZM110.421 9.14752L110.455 8.61405L111.001 8.64765V8.71906H110.913C110.855 8.71591 110.797 8.72473 110.743 8.74497C110.689 8.76521 110.639 8.79643 110.598 8.83668C110.51 8.91938 110.456 9.03162 110.446 9.15172L110.421 9.14752Z" fill="#222222"/>
<path d="M113.072 13.4365L113.021 13.9699L112.475 13.9195V13.8439H112.563C112.62 13.8509 112.678 13.8451 112.733 13.827C112.787 13.8088 112.837 13.7787 112.878 13.7389C112.972 13.6609 113.031 13.5492 113.042 13.4281L113.072 13.4365ZM113.462 9.3997H113.441C113.455 9.27931 113.42 9.15848 113.345 9.06365C113.309 9.01705 113.264 8.9784 113.213 8.95019C113.161 8.92198 113.105 8.90482 113.046 8.89983H112.967V8.82422L113.513 8.87883L113.462 9.3997ZM113.937 8.90823L113.445 14.0119L113 13.9699L113.492 8.86202L113.937 8.90823ZM115.315 13.9489V14.1758L113.416 14.0077L113.437 13.7851L115.315 13.9489ZM115.252 11.521L115.231 11.7394L113.655 11.6218L113.676 11.4034L115.252 11.521ZM115.785 9.10146L115.76 9.32829L113.895 9.14766L113.916 8.92083L115.785 9.10146ZM115.823 13.0626L115.31 14.2094L114.176 14.1002L114.445 13.8943C114.649 13.923 114.857 13.9014 115.05 13.8313C115.215 13.7714 115.361 13.6667 115.47 13.5289C115.586 13.3824 115.688 13.2248 115.773 13.0584L115.823 13.0626ZM115.231 11.7562L115.184 12.2393H115.117V12.1301C115.124 12.0841 115.121 12.0373 115.109 11.9925C115.096 11.9477 115.075 11.9059 115.046 11.8696C115.02 11.8335 114.987 11.8032 114.948 11.7807C114.91 11.7583 114.867 11.7442 114.823 11.7394L115.231 11.7562ZM115.294 11.0841L115.247 11.5672L114.853 11.5294C114.897 11.5318 114.942 11.5252 114.983 11.5101C115.025 11.4949 115.064 11.4715 115.096 11.4412C115.166 11.3784 115.21 11.2913 115.218 11.1976V11.0967L115.294 11.0841ZM115.798 8.98384L115.777 9.19387L114.937 9.03425C115.043 9.04071 115.15 9.04071 115.256 9.03425L115.571 9.01325C115.648 8.99918 115.724 8.97953 115.798 8.95444V8.98384ZM115.764 9.31989L115.71 9.89957H115.638V9.76935C115.645 9.71361 115.641 9.657 115.626 9.60289C115.611 9.54877 115.585 9.49825 115.55 9.45431C115.484 9.36598 115.386 9.30714 115.277 9.29048L115.764 9.31989Z" fill="#222222"/>
<path d="M120.893 14.3436C120.87 14.3711 120.852 14.4032 120.841 14.4379C120.83 14.4726 120.826 14.5091 120.83 14.5452C120.837 14.6148 120.865 14.6807 120.91 14.7343C120.948 14.7839 121.004 14.817 121.066 14.8267H121.154V14.9023L119.608 14.6755V14.5999H119.705C119.849 14.6199 119.995 14.595 120.125 14.5284C120.251 14.4631 120.364 14.3764 120.461 14.2722L120.893 14.3436ZM122.153 12.3105L122.263 12.6424L120.498 14.8141L120.078 14.7511L122.153 12.3105ZM122.095 9.86999V9.9456H122.015C121.953 9.93723 121.89 9.9522 121.838 9.98761C121.78 10.0265 121.735 10.0821 121.708 10.1472C121.681 10.2146 121.681 10.2899 121.708 10.3573L121.166 10.2564C121.105 10.1302 121.022 10.0152 120.923 9.9162C120.819 9.81362 120.685 9.74731 120.54 9.72717H120.448V9.65576L122.095 9.86999ZM121.46 9.77758L123.741 15.2888L123.199 15.2089L120.931 9.70197L121.46 9.77758ZM124.401 10.1976L122.435 12.4744L122.229 12.2643L123.96 10.1346L124.401 10.1976ZM122.985 14.6419L123.54 14.7511C123.599 14.8787 123.683 14.993 123.788 15.0871C123.889 15.1868 124.02 15.2515 124.161 15.2719H124.258V15.3434L122.603 15.0997V15.0283H122.687C122.735 15.0335 122.784 15.0258 122.828 15.0059C122.873 14.9859 122.911 14.9545 122.939 14.9149C122.967 14.8778 122.986 14.8341 122.993 14.7879C123.001 14.7417 122.997 14.6944 122.981 14.6503L122.985 14.6419ZM124.863 10.269V10.3405H124.766C124.622 10.3161 124.474 10.3413 124.346 10.4119C124.22 10.4778 124.106 10.5629 124.006 10.6639L123.586 10.6219C123.611 10.5951 123.63 10.5632 123.641 10.5284C123.653 10.4936 123.657 10.4567 123.653 10.4203C123.65 10.3526 123.625 10.2878 123.582 10.2354C123.563 10.2095 123.539 10.1875 123.512 10.1709C123.484 10.1544 123.454 10.1434 123.422 10.1388H123.338V10.0674L124.863 10.269Z" fill="#222222"/>
<path d="M126.346 15.2008C126.32 15.2268 126.301 15.2579 126.289 15.2919C126.276 15.3259 126.271 15.3622 126.274 15.3983C126.277 15.4685 126.302 15.536 126.346 15.5915C126.384 15.6419 126.439 15.6775 126.501 15.6923H126.589V15.7679L125.052 15.4865V15.4151H125.144C125.287 15.4407 125.434 15.4201 125.564 15.3563C125.693 15.2983 125.81 15.2171 125.909 15.1168L126.346 15.2008ZM127.698 13.2098L127.795 13.55L125.959 15.6503L125.539 15.5705L127.698 13.2098ZM127.698 10.7734V10.8448H127.618C127.556 10.8365 127.493 10.8514 127.442 10.8868C127.381 10.92 127.333 10.9735 127.307 11.0381C127.282 11.1072 127.282 11.1831 127.307 11.2523L126.774 11.1305C126.716 11.0015 126.637 10.8835 126.539 10.7818C126.439 10.6767 126.308 10.6061 126.165 10.5802H126.072V10.5088L127.698 10.7734ZM127.072 10.66L129.173 16.2426L128.631 16.146L126.53 10.5634L127.072 10.66ZM129.987 11.2019L127.946 13.4072L127.744 13.193L129.546 11.1221L129.987 11.2019ZM128.421 15.5957L128.971 15.7259C129.027 15.8545 129.107 15.9713 129.206 16.0704C129.306 16.1727 129.435 16.2417 129.576 16.2678H129.668V16.3392L128.022 16.041V15.9654H128.101C128.15 15.9731 128.199 15.9678 128.245 15.9501C128.291 15.9324 128.331 15.9029 128.362 15.8645C128.396 15.8266 128.42 15.7801 128.43 15.7298C128.441 15.6795 128.437 15.6274 128.421 15.5789V15.5957ZM130.445 11.2859V11.3573H130.349C130.206 11.3311 130.059 11.3517 129.929 11.4161C129.8 11.4781 129.682 11.5603 129.58 11.6598L129.16 11.6009C129.184 11.5744 129.203 11.5433 129.215 11.5094C129.228 11.4755 129.233 11.4395 129.231 11.4035C129.231 11.3348 129.207 11.2682 129.164 11.2145C129.128 11.1617 129.072 11.1255 129.009 11.1137H128.929V11.0381L130.445 11.2859Z" fill="#222222"/>
<path d="M131.588 16.2003L131.479 16.7254L130.941 16.612V16.5406H131.029C131.086 16.5518 131.144 16.5513 131.2 16.539C131.257 16.5267 131.31 16.5029 131.357 16.4692C131.456 16.4004 131.527 16.2971 131.554 16.1793L131.588 16.2003ZM132.945 11.7897L131.894 16.8304L131.474 16.7422L132.525 11.7225L132.945 11.7897ZM131.983 16.2843H132.004C131.981 16.403 132.004 16.5257 132.067 16.6288C132.096 16.6788 132.136 16.7221 132.183 16.7561C132.23 16.7901 132.283 16.8139 132.34 16.8262H132.428V16.8976L131.89 16.7842L131.983 16.2843ZM132.403 12.2266H132.382C132.404 12.1079 132.382 11.9852 132.319 11.8821C132.289 11.8321 132.25 11.7888 132.203 11.7548C132.156 11.7209 132.102 11.697 132.046 11.6847H131.957V11.6133L132.495 11.7267L132.403 12.2266ZM132.798 12.3106L132.907 11.7855L133.444 11.8989V11.9703H133.356C133.3 11.9591 133.241 11.9596 133.185 11.9719C133.129 11.9842 133.075 12.008 133.029 12.0417C132.929 12.1105 132.859 12.2138 132.831 12.3316L132.798 12.3106Z" fill="#222222"/>
<path d="M141.694 16.9525L141.329 18.0488C141.16 18.2177 140.966 18.3594 140.753 18.4689C140.53 18.5837 140.289 18.6577 140.039 18.6873C139.757 18.7146 139.473 18.6904 139.199 18.6159C138.766 18.5082 138.37 18.2862 138.053 17.9732C137.748 17.6668 137.536 17.2811 137.439 16.86C137.34 16.3827 137.357 15.8884 137.49 15.4192C137.599 14.9527 137.821 14.5201 138.137 14.1591C138.421 13.8329 138.792 13.5952 139.208 13.4744C139.651 13.3503 140.121 13.3503 140.564 13.4744C140.863 13.5487 141.147 13.6722 141.405 13.8398C141.628 13.9844 141.83 14.1598 142.005 14.3607L141.883 15.4024H141.82C141.843 15.0032 141.718 14.6096 141.468 14.2977C141.214 14.0041 140.874 13.797 140.497 13.7054C140.138 13.6055 139.757 13.6187 139.405 13.7432C139.059 13.874 138.756 14.0996 138.531 14.3943C138.266 14.7431 138.077 15.1438 137.977 15.5705C137.86 15.9941 137.831 16.4374 137.893 16.8726C137.947 17.2411 138.103 17.5872 138.342 17.8724C138.577 18.1485 138.891 18.3463 139.241 18.4395C139.543 18.5192 139.859 18.5307 140.165 18.4731C140.484 18.4119 140.776 18.2568 141.006 18.0278C141.299 17.7283 141.519 17.3644 141.648 16.9651L141.694 16.9525Z" fill="#222222"/>
<path d="M143.479 19.1238L143.332 19.6404L142.82 19.485L142.841 19.4136L142.925 19.4388C142.98 19.4549 143.038 19.4595 143.095 19.4522C143.152 19.445 143.207 19.4261 143.257 19.3968C143.363 19.3357 143.443 19.2367 143.479 19.1196V19.1238ZM145.16 14.835L143.727 19.758L143.307 19.632L144.739 14.7089L145.16 14.835ZM145.58 20.0563L145.517 20.2747L143.715 19.7538L143.778 19.5354L145.58 20.0563ZM144.609 15.2298C144.629 15.1727 144.636 15.112 144.631 15.0518C144.625 14.9916 144.606 14.9334 144.576 14.8812C144.55 14.8298 144.514 14.7843 144.47 14.7475C144.426 14.7106 144.375 14.6832 144.319 14.6669L144.24 14.6417V14.5703L144.769 14.7215L144.609 15.2298ZM145.97 17.6619L145.907 17.872L144.391 17.4309L144.454 17.2209L145.97 17.6619ZM146.252 19.254L145.538 20.2831L144.441 19.9639L144.744 19.8126C144.938 19.8813 145.146 19.8987 145.349 19.8631C145.516 19.8289 145.673 19.7523 145.802 19.6404C145.944 19.5139 146.072 19.3732 146.185 19.2204L146.252 19.254ZM146.949 15.3516L146.886 15.5701L145.084 15.045L145.147 14.8265L146.949 15.3516ZM145.911 17.872L145.777 18.334H145.71L145.743 18.229C145.769 18.138 145.76 18.0408 145.718 17.956C145.7 17.9162 145.673 17.8809 145.64 17.8525C145.606 17.8242 145.567 17.8036 145.525 17.7922L145.911 17.872ZM146.1 17.2251L145.966 17.6871L145.584 17.5779C145.627 17.5888 145.672 17.5906 145.716 17.5834C145.76 17.5762 145.802 17.56 145.84 17.5359C145.919 17.4879 145.976 17.4111 146 17.3217L146.029 17.2209L146.1 17.2251ZM146.987 15.2382L146.928 15.444L146.142 15.129C146.246 15.1606 146.351 15.1844 146.458 15.2004L146.773 15.2382C146.846 15.243 146.919 15.2388 146.991 15.2256L146.987 15.2382ZM146.89 15.5617L146.726 16.1245H146.663L146.697 15.9985C146.714 15.9456 146.721 15.8898 146.717 15.8343C146.713 15.7787 146.697 15.7246 146.672 15.6751C146.649 15.6254 146.615 15.581 146.574 15.5448C146.533 15.5087 146.485 15.4815 146.432 15.465L146.89 15.5617Z" fill="#222222"/>
<path d="M148.058 20.5019L147.898 20.9975L147.356 20.8211L147.377 20.7497L147.503 20.7917C147.556 20.8102 147.612 20.8167 147.667 20.8109C147.722 20.8051 147.775 20.7871 147.823 20.7581C147.875 20.7323 147.922 20.6958 147.959 20.651C147.997 20.6061 148.025 20.5539 148.041 20.4977L148.058 20.5019ZM149.516 16.0156L149.675 16.4987L148.18 21.0899L147.877 20.9933L149.222 16.8852C149.315 16.5932 149.391 16.2958 149.448 15.9946L149.516 16.0156ZM148.339 20.5943C148.302 20.7061 148.309 20.8281 148.36 20.9345C148.382 20.9856 148.415 21.0313 148.456 21.0683C148.498 21.1054 148.547 21.1328 148.6 21.1488L148.726 21.1908L148.701 21.2832L148.159 21.1025L148.323 20.6111L148.339 20.5943ZM149.516 16.0156L151.893 21.573L151.704 22.3501L149.322 16.8011L149.516 16.0156ZM153.321 17.3808L151.99 21.4596C151.939 21.6066 151.897 21.7536 151.859 21.8797C151.822 22.0057 151.788 22.1779 151.754 22.3585L151.696 22.3375L151.523 21.8755L153.027 17.2548L153.321 17.3808ZM152.502 17.112L153.044 17.2884L152.901 17.7841C152.937 17.6706 152.929 17.5479 152.88 17.4396C152.856 17.3896 152.822 17.3448 152.78 17.308C152.738 17.2713 152.689 17.2432 152.637 17.2254L152.511 17.1834L152.502 17.112ZM153.846 17.532L153.821 17.6035L153.704 17.5657C153.651 17.5474 153.596 17.5406 153.541 17.5457C153.486 17.5508 153.432 17.5676 153.384 17.5951C153.279 17.6498 153.199 17.7431 153.162 17.8555H153.141L153.304 17.3598L153.846 17.532Z" fill="#222222"/>
<path d="M155.422 22.9972L155.237 23.5012L154.721 23.3122L154.746 23.245L154.83 23.2744C154.884 23.2943 154.942 23.3027 155 23.299C155.058 23.2954 155.114 23.2799 155.166 23.2534C155.274 23.1985 155.358 23.1058 155.401 22.993L155.422 22.9972ZM155.699 18.4143C155.595 18.3814 155.482 18.3904 155.384 18.4395C155.333 18.4648 155.288 18.5002 155.251 18.5436C155.215 18.5869 155.187 18.6372 155.17 18.6916L155.124 18.8092H155.057L155.263 18.2505L155.699 18.4143ZM157.38 18.8344L155.632 23.6315L155.212 23.476L156.96 18.679L157.38 18.8344ZM159.06 19.4099L158.984 19.6157L155.25 18.2547L155.326 18.0489L159.06 19.4099ZM155.376 17.9229C155.43 17.9713 155.489 18.0136 155.552 18.0489C155.642 18.106 155.734 18.1579 155.83 18.2043C155.922 18.254 156.017 18.2975 156.115 18.3345L155.3 18.1245L155.376 17.9229ZM155.796 23.119C155.752 23.2325 155.752 23.3583 155.796 23.4718C155.817 23.5254 155.849 23.5739 155.89 23.6138C155.932 23.6537 155.981 23.6841 156.035 23.7029L156.12 23.7323L156.094 23.8037L155.578 23.6147L155.796 23.119ZM159.094 19.288L159.022 19.4855L158.262 19.1242C158.362 19.1592 158.465 19.1886 158.568 19.2124C158.678 19.2376 158.783 19.2586 158.879 19.2712C158.954 19.2927 159.032 19.304 159.11 19.3048L159.094 19.288ZM158.98 19.5947L158.783 20.1702L158.72 20.1408L158.783 20.0231C158.805 19.9707 158.817 19.9143 158.817 19.8572C158.817 19.8002 158.805 19.7437 158.783 19.6913C158.74 19.5934 158.662 19.5153 158.564 19.4729L158.98 19.5947Z" fill="#222222"/>
<path d="M161.404 20.342L160.202 23.3328C160.075 23.6252 160.013 23.9422 160.022 24.2611C160.026 24.5369 160.111 24.8054 160.265 25.0341C160.413 25.2598 160.63 25.432 160.883 25.5255C161.146 25.6419 161.439 25.6784 161.723 25.6305C161.989 25.5833 162.236 25.4626 162.437 25.2819C162.664 25.0776 162.839 24.8209 162.945 24.5342L164.184 21.4552L164.483 21.577L163.235 24.6434C163.115 24.9685 162.914 25.2577 162.651 25.4835C162.412 25.6869 162.121 25.8193 161.811 25.8658C161.472 25.9059 161.129 25.8566 160.816 25.723C160.489 25.6019 160.199 25.3978 159.975 25.1307C159.772 24.8833 159.644 24.5831 159.606 24.2653C159.571 23.9188 159.624 23.569 159.761 23.2488L161 20.1614L161.404 20.342ZM161.009 20.1824L160.845 20.6024H160.824C160.845 20.5584 160.855 20.5103 160.855 20.4617C160.855 20.4131 160.845 20.365 160.824 20.321C160.806 20.2764 160.779 20.2361 160.744 20.2027C160.709 20.1694 160.668 20.1439 160.622 20.1278L160.521 20.0858L160.551 20.0186L161.009 20.1824ZM161.849 20.5184L161.819 20.5856L161.719 20.5436C161.675 20.5249 161.628 20.5153 161.58 20.5153C161.532 20.5153 161.485 20.5249 161.441 20.5436C161.396 20.5616 161.354 20.5893 161.32 20.6249C161.286 20.6604 161.26 20.7029 161.244 20.7495L161.408 20.3294L161.849 20.5184ZM164.197 21.4636L164.033 21.8836C164.052 21.8393 164.062 21.7917 164.062 21.7435C164.062 21.6953 164.053 21.6476 164.034 21.6032C164.015 21.5589 163.987 21.5188 163.952 21.4854C163.918 21.452 163.877 21.426 163.832 21.4089L163.731 21.3669L163.756 21.2997L164.197 21.4636ZM164.919 21.7534L164.89 21.8206L164.789 21.7786C164.745 21.7597 164.697 21.7501 164.648 21.7503C164.6 21.7504 164.552 21.7605 164.508 21.7797C164.463 21.799 164.423 21.827 164.39 21.8622C164.357 21.8974 164.331 21.939 164.315 21.9844L164.478 21.5644L164.919 21.7534Z" fill="#222222"/>
<path d="M165.21 26.8781L164.995 27.3696L164.491 27.1469L164.521 27.0797L164.6 27.1175C164.653 27.1407 164.711 27.1526 164.768 27.1526C164.826 27.1526 164.883 27.1407 164.936 27.1175C165.049 27.0702 165.14 26.9836 165.193 26.8739L165.21 26.8781ZM167.453 22.8497L165.382 27.5418L164.962 27.3612L167.033 22.6691L167.453 22.8497ZM165.579 27.0503H165.6C165.554 27.1634 165.554 27.2901 165.6 27.4032C165.619 27.4579 165.649 27.5081 165.688 27.5508C165.727 27.5934 165.774 27.6275 165.827 27.651L165.903 27.6846L165.873 27.7518L165.378 27.5334L165.579 27.0503ZM166.839 23.1732C166.881 23.0593 166.881 22.9342 166.839 22.8203C166.82 22.7664 166.79 22.717 166.751 22.6751C166.712 22.6332 166.665 22.5997 166.613 22.5767L166.533 22.5389L166.562 22.4717L167.062 22.6943L166.839 23.1732ZM168.251 23.211C168.426 23.286 168.585 23.3928 168.721 23.526C168.845 23.6422 168.94 23.7862 168.998 23.9461C169.057 24.1072 169.08 24.2792 169.066 24.4502C169.05 24.6449 169 24.8354 168.919 25.013C168.823 25.2278 168.68 25.4176 168.499 25.5675C168.327 25.7162 168.122 25.8227 167.902 25.8784C167.693 25.9307 167.472 25.91 167.276 25.8195C167.347 25.9059 167.398 26.006 167.427 26.1136C167.465 26.248 167.499 26.374 167.524 26.4916C167.558 26.7129 167.591 26.9061 167.625 27.0713C167.654 27.2351 167.688 27.3948 167.721 27.5544C167.747 27.6851 167.781 27.8142 167.822 27.9408C167.857 28.0687 167.902 28.1937 167.957 28.3147C168.005 28.4252 168.07 28.5273 168.15 28.6171C168.234 28.7087 168.337 28.7804 168.452 28.8272L168.423 28.8944L168.074 28.7432C167.901 28.6723 167.745 28.5649 167.616 28.4281C167.509 28.3159 167.424 28.1849 167.364 28.0417C167.313 27.92 167.27 27.7951 167.234 27.6678C167.234 27.6468 167.234 27.5796 167.201 27.4704C167.167 27.3612 167.159 27.2267 167.133 27.0755L167.058 26.6219C167.037 26.4706 167.016 26.3446 166.995 26.2396C166.974 26.1346 166.97 26.0674 166.965 26.0506C166.936 25.9071 166.894 25.7665 166.839 25.6305C166.793 25.5086 166.701 25.4094 166.583 25.3533L166.617 25.2861C166.743 25.3449 166.852 25.3953 166.949 25.4331C167.073 25.4782 167.201 25.5134 167.331 25.5381C167.481 25.5622 167.635 25.5507 167.78 25.5045C167.959 25.4362 168.116 25.3199 168.234 25.1685C168.277 25.115 168.315 25.0573 168.347 24.9962C168.388 24.9278 168.423 24.8562 168.452 24.782C168.582 24.522 168.617 24.2252 168.553 23.9419C168.529 23.8262 168.478 23.7177 168.405 23.6245C168.333 23.5313 168.239 23.456 168.133 23.4042C168.02 23.3412 167.902 23.2866 167.776 23.232L167.356 23.043C167.356 23.043 167.356 23.0178 167.356 22.98C167.356 22.9421 167.356 22.8833 167.377 22.8077L168.251 23.211Z" fill="#222222"/>
<path d="M170.884 29.4577L170.653 29.9408L170.166 29.7055L170.195 29.6383L170.275 29.6803C170.328 29.7035 170.385 29.7154 170.443 29.7154C170.501 29.7154 170.558 29.7035 170.611 29.6803C170.725 29.6363 170.818 29.5508 170.872 29.4409L170.884 29.4577ZM172.06 27.9959L171.044 30.1256L170.645 29.9324L171.657 27.8027L172.06 27.9959ZM171.955 25.4755L171.447 25.2067C171.433 25.0691 171.39 24.936 171.321 24.816C171.251 24.6881 171.142 24.5853 171.01 24.522L170.926 24.48L170.956 24.417L172.481 25.1437L172.451 25.2067L172.371 25.1689C172.327 25.148 172.278 25.1405 172.229 25.1472C172.181 25.1539 172.135 25.1746 172.098 25.2067C172.054 25.2379 172.018 25.2795 171.993 25.3278C171.968 25.376 171.955 25.4296 171.955 25.4839V25.4755ZM171.258 29.6467C171.231 29.7011 171.215 29.7604 171.212 29.821C171.208 29.8816 171.217 29.9424 171.237 29.9996C171.254 30.0543 171.283 30.1049 171.32 30.1482C171.358 30.1915 171.404 30.2267 171.456 30.2516L171.531 30.2894L171.502 30.3524L171.027 30.1046L171.258 29.6467ZM171.947 24.8959L172.01 27.8867L171.636 27.9917L171.414 24.6312L171.947 24.8959ZM174.35 26.0426L174.728 26.219L171.951 28.1261L171.762 27.9497L174.35 26.0426ZM173.875 26.3913C173.936 26.3504 173.978 26.2869 173.993 26.2148C174.014 26.1493 174.014 26.0788 173.993 26.0132C173.97 25.9528 173.925 25.9032 173.867 25.8746L173.795 25.841L173.825 25.7738L175.203 26.4291L175.169 26.4963L175.085 26.4543C174.954 26.3924 174.807 26.3747 174.665 26.4039C174.524 26.4252 174.388 26.4737 174.266 26.5467L173.875 26.3913Z" fill="#222222"/>
<path d="M27.5265 28.613C27.6121 28.492 27.6641 28.3506 27.6774 28.2031C27.6907 28.0555 27.6647 27.9071 27.6021 27.7728L27.5769 27.7266L27.4425 27.4662L27.5181 27.4242C27.5351 27.4144 27.5479 27.3988 27.5541 27.3802C27.5603 27.3616 27.5595 27.3414 27.5517 27.3234L27.4803 27.189C27.4706 27.172 27.4546 27.1594 27.4358 27.1539C27.417 27.1484 27.3968 27.1504 27.3795 27.1596L25.7497 28.0039C25.7316 28.0137 25.7181 28.0301 25.7118 28.0496C25.7055 28.0692 25.7071 28.0904 25.7161 28.1089L25.7875 28.2391C25.7965 28.2568 25.8121 28.2703 25.831 28.2766C25.8498 28.2829 25.8704 28.2815 25.8883 28.2727L25.9639 28.2307L26.1025 28.4953V28.5206C26.1769 28.6494 26.2841 28.7561 26.4133 28.83C26.5424 28.9038 26.6889 28.9419 26.8376 28.9406C26.8421 28.938 26.8471 28.9367 26.8523 28.9367C26.8575 28.9367 26.8625 28.938 26.867 28.9406L26.9174 29.0372C26.9216 29.0418 26.9238 29.0478 26.9238 29.054C26.9238 29.0602 26.9216 29.0662 26.9174 29.0708C26.8238 29.2038 26.7707 29.3612 26.7648 29.5237C26.7588 29.6863 26.8002 29.8471 26.8838 29.9866L27.014 30.2344L26.9384 30.2764C26.9292 30.2804 26.921 30.2863 26.9142 30.2937C26.9074 30.3011 26.9023 30.3098 26.8991 30.3193C26.896 30.3288 26.8948 30.3389 26.8958 30.3489C26.8968 30.3588 26.8999 30.3685 26.9048 30.3772L26.972 30.5074C26.9818 30.5255 26.9982 30.539 27.0178 30.5453C27.0374 30.5515 27.0586 30.55 27.077 30.541L28.7069 29.7009C28.7246 29.6919 28.7381 29.6763 28.7444 29.6574C28.7507 29.6385 28.7493 29.6179 28.7405 29.6001L28.6733 29.4699C28.6693 29.4607 28.6634 29.4524 28.656 29.4457C28.6486 29.4389 28.6399 29.4338 28.6304 29.4306C28.6208 29.4274 28.6108 29.4263 28.6008 29.4273C28.5908 29.4283 28.5812 29.4313 28.5725 29.4363L28.4926 29.4783L28.3624 29.2263C28.2925 29.0836 28.1836 28.9636 28.0483 28.8803C27.913 28.7971 27.7568 28.7539 27.5979 28.7558C27.5884 28.7593 27.578 28.7593 27.5685 28.7558L27.5181 28.6592C27.5147 28.6515 27.5137 28.643 27.5152 28.6348C27.5167 28.6266 27.5207 28.619 27.5265 28.613ZM28.144 29.2641C28.2433 29.354 28.3196 29.4663 28.3666 29.5917L27.7827 29.8941L27.2031 30.1966C27.1253 30.0888 27.0762 29.9631 27.0602 29.8311C27.1027 29.6882 27.1825 29.5592 27.2913 29.4573V29.4321C27.2579 29.4233 27.2268 29.4075 27.2 29.3858C27.1732 29.364 27.1514 29.3369 27.1359 29.3061C27.1182 29.2731 27.109 29.2363 27.109 29.1989C27.109 29.1616 27.1182 29.1248 27.1359 29.0918V29.012C27.1359 28.9616 27.1989 28.8314 26.741 27.8569C27.2829 28.8062 27.4005 28.823 27.4425 28.8566L27.5097 28.8986C27.5462 28.9016 27.5813 28.9135 27.6121 28.9332C27.6429 28.953 27.6683 28.9801 27.6861 29.012C27.6996 29.0446 27.7066 29.0796 27.7066 29.1149C27.7066 29.1502 27.6996 29.1852 27.6861 29.2178V29.2389C27.838 29.203 27.997 29.2118 28.144 29.2641Z" fill="#222222"/>
<path d="M176.693 30.2558C176.842 30.2693 176.992 30.243 177.127 30.1795C177.262 30.116 177.378 30.0177 177.462 29.8946L177.491 29.8484L177.647 29.6005L177.723 29.6467C177.74 29.6565 177.76 29.6593 177.78 29.6546C177.799 29.6499 177.816 29.6381 177.828 29.6215L177.903 29.4955C177.917 29.4814 177.924 29.4626 177.924 29.443C177.924 29.4234 177.917 29.4046 177.903 29.3905L176.32 28.4244C176.311 28.4191 176.302 28.4156 176.293 28.414C176.283 28.4125 176.273 28.4129 176.264 28.4152C176.254 28.4176 176.245 28.4218 176.238 28.4278C176.23 28.4337 176.223 28.4411 176.219 28.4496L176.139 28.5756C176.133 28.5836 176.129 28.5928 176.127 28.6025C176.125 28.6123 176.125 28.6223 176.128 28.632C176.13 28.6416 176.135 28.6506 176.141 28.6583C176.147 28.666 176.155 28.6722 176.164 28.6764L176.235 28.7268L176.08 28.9746C176.079 28.9844 176.079 28.9943 176.08 29.0041C176.006 29.1318 175.968 29.2766 175.968 29.4241C175.968 29.5716 176.006 29.7165 176.08 29.8442C176.084 29.855 176.084 29.867 176.08 29.8778L176.021 29.9702C176.016 29.9728 176.01 29.9741 176.004 29.9741C175.999 29.9741 175.993 29.9728 175.988 29.9702C175.833 29.9566 175.678 29.9859 175.54 30.0548C175.401 30.1238 175.284 30.2297 175.202 30.3608L175.055 30.5961L174.98 30.5541C174.965 30.5405 174.947 30.5329 174.927 30.5329C174.907 30.5329 174.889 30.5405 174.875 30.5541L174.799 30.6801C174.793 30.6884 174.79 30.6976 174.788 30.7074C174.786 30.7172 174.786 30.7272 174.788 30.737C174.79 30.7467 174.793 30.756 174.799 30.7642C174.804 30.7725 174.812 30.7796 174.82 30.7851L176.378 31.7596C176.395 31.7698 176.415 31.7732 176.435 31.7694C176.454 31.7655 176.472 31.7545 176.483 31.7386L176.563 31.6126C176.569 31.6046 176.573 31.5954 176.575 31.5857C176.577 31.5759 176.577 31.5659 176.574 31.5563C176.572 31.5466 176.567 31.5376 176.561 31.5299C176.555 31.5222 176.547 31.5161 176.538 31.5118L176.425 31.5328L176.572 31.2934C176.659 31.1614 176.707 31.0073 176.711 30.849C176.715 30.6907 176.674 30.5346 176.593 30.3986C176.588 30.3878 176.588 30.3758 176.593 30.365L176.651 30.2726C176.655 30.2651 176.661 30.2592 176.669 30.2561C176.677 30.253 176.686 30.2529 176.693 30.2558ZM176.454 31.0959C176.428 31.2277 176.369 31.3506 176.282 31.453L175.727 31.1043L175.164 30.7515C175.22 30.63 175.303 30.5234 175.408 30.4407C175.546 30.4051 175.69 30.4051 175.828 30.4407C175.819 30.4068 175.818 30.3715 175.823 30.3369C175.828 30.3023 175.839 30.269 175.857 30.239C175.877 30.2078 175.905 30.1818 175.937 30.1635C175.969 30.1452 176.005 30.1351 176.042 30.134L176.114 30.1004C176.16 30.071 176.303 30.0626 176.912 29.1721C176.37 30.1214 176.412 30.2348 176.404 30.281V30.3608C176.421 30.3938 176.43 30.4306 176.43 30.468C176.43 30.5053 176.421 30.5421 176.404 30.5751C176.384 30.6041 176.36 30.629 176.331 30.6485C176.302 30.668 176.27 30.6816 176.235 30.6885C176.343 30.8011 176.418 30.9403 176.454 31.0917V31.0959Z" fill="#222222"/>
</svg>
